/* XPM */
static char *_1401b292c6649ffe9053845c40c7b8dXq5sMpyFnglPNxvl[] = {
/* columns rows colors chars-per-pixel */
"64 64 247 2 ",
"   c #9FD6B7",
".  c #9AD2B9",
"X  c #9AD1BA",
"o  c #9BD3BA",
"O  c #9BD2BB",
"+  c #9DD1BB",
"@  c #9FD0BB",
"#  c #9CD2BA",
"$  c #9CD2BB",
"%  c #9ED6B9",
"&  c #9FD6B9",
"*  c #9DD5BA",
"=  c #9ED4BA",
"-  c #9FD4BA",
";  c #9ED6BB",
":  c #9BD2BD",
">  c #99D2BF",
",  c #9BD2BF",
"<  c #9DD0BD",
"1  c #9CD1BD",
"2  c #9FD0BD",
"3  c #9CD3BC",
"4  c #9DD3BC",
"5  c #9DD0BF",
"6  c #9CD1BF",
"7  c #9ED1BE",
"8  c #9DD2BE",
"9  c #9CD3BE",
"0  c #9FD2BF",
"q  c #9ED3BF",
"w  c #9BD5BD",
"e  c #98D7BC",
"r  c #98D6BD",
"t  c #9AD5BF",
"y  c #9BD5BF",
"u  c #98D6BF",
"i  c #9DD5BC",
"p  c #9DD4BD",
"a  c #9ED4BC",
"s  c #9ED4BD",
"d  c #9ED6BD",
"f  c #9DD4BF",
"g  c #9ED5BE",
"h  c #9FD6BF",
"j  c #A0D5B9",
"k  c #A0D5BB",
"l  c #A2D4BB",
"z  c #A2D1BD",
"x  c #A1D2BD",
"c  c #A2D2BC",
"v  c #A2D3BD",
"b  c #A1D2BF",
"n  c #A2D3BE",
"m  c #A0D6BC",
"M  c #A1D6BC",
"N  c #A2D7BD",
"B  c #A3D4BE",
"V  c #A0D6BE",
"C  c #A0D6BF",
"Z  c #A1D7BF",
"A  c #A2D6BF",
"S  c #A0D8BF",
"D  c #ADDFB9",
"F  c #ADDFBA",
"G  c #AFDEBC",
"H  c #ACDFBE",
"J  c #AFDEBE",
"K  c #ABE2BB",
"L  c #ACE0B9",
"P  c #ACE0BA",
"I  c #AFE4BA",
"U  c #ABE1BD",
"Y  c #ABE1BF",
"T  c #AAE2BF",
"R  c #ACE0BC",
"E  c #ADE1BD",
"W  c #AFE3BC",
"Q  c #ADE3BF",
"!  c #AFE3BF",
"~  c #ADE4BD",
"^  c #B2E1BD",
"/  c #B0E2BC",
"(  c #B0E2BD",
")  c #B2E1BF",
"_  c #97D3C7",
"`  c #97D4C5",
"'  c #9BD1C1",
"]  c #99D2C1",
"[  c #98D3C1",
"{  c #9AD3C0",
"}  c #9BD1C3",
"|  c #98D2C3",
" . c #99D2C3",
".. c #9AD3C2",
"X. c #9DD0C1",
"o. c #9CD1C1",
"O. c #9ED1C0",
"+. c #9DD2C0",
"@. c #9CD3C0",
"#. c #9ED3C1",
"$. c #9CD2C2",
"%. c #9DD2C2",
"&. c #9DD3C3",
"*. c #9ED3C3",
"=. c #9BD4C1",
"-. c #9AD5C1",
";. c #99D4C2",
":. c #98D5C3",
">. c #9BD4C3",
",. c #9AD5C3",
"<. c #9DD4C1",
"1. c #9ED5C0",
"2. c #9CD6C0",
"3. c #9FD6C1",
"4. c #9CD5C2",
"5. c #9FD4C2",
"6. c #9ED5C2",
"7. c #99D3C4",
"8. c #99D3C5",
"9. c #9AD3C4",
"0. c #9AD2C5",
"q. c #9BD3C6",
"w. c #9AD2C7",
"e. c #9FD1C5",
"r. c #9CD2C4",
"t. c #9CD2C5",
"y. c #9DD3C5",
"u. c #9ED2C5",
"i. c #9CD1C7",
"p. c #9DD3C6",
"a. c #9ED2C6",
"s. c #9FD3C6",
"d. c #9FD3C7",
"f. c #98D5C5",
"g. c #9AD4C5",
"h. c #9BD4C5",
"j. c #9BD6C4",
"k. c #98D5C6",
"l. c #9AD4C6",
"z. c #9BD5C7",
"x. c #9CD5C4",
"c. c #9ED4C4",
"v. c #9FD4C4",
"b. c #9FD5C5",
"n. c #9ED7C4",
"m. c #9CD5C6",
"M. c #9CD4C7",
"N. c #9ED4C6",
"B. c #9ED4C7",
"V. c #9FD5C7",
"C. c #9BD3C8",
"Z. c #9AD2C9",
"A. c #99D2CB",
"S. c #9AD3CA",
"D. c #9BD3CA",
"F. c #9ED1C8",
"G. c #9FD1C8",
"H. c #9DD2C8",
"J. c #9FD0CA",
"K. c #9ED1CA",
"L. c #9DD2CA",
"P. c #98D4C8",
"I. c #9ED1CC",
"U. c #A2D3C0",
"Y. c #A1D4C1",
"T. c #A0D5C1",
"R. c #A0D7C0",
"E. c #A1D7C0",
"W. c #A1D4C3",
"Q. c #A2D5C2",
"!. c #A1D6C2",
"~. c #A0D7C2",
"^. c #A4D5C0",
"/. c #A5D6C0",
"(. c #A1D1C5",
"). c #A1D6C6",
"_. c #A1D8C1",
"`. c #A2D8C0",
"'. c #A2D8C1",
"]. c #A5DCC5",
"[. c #A6DCC4",
"{. c #A6DEC5",
"}. c #A7DFC6",
"|. c #A8DDC1",
" X c #AADFC1",
".X c #A8DDC3",
"XX c #ABDDC2",
"oX c #A9DEC2",
"OX c #AADFC3",
"+X c #AFDDC0",
"@X c #ADDEC0",
"#X c #ADDFC2",
"$X c #ACDEC3",
"%X c #AEDFC2",
"&X c #A9DAC4",
"*X c #AADBC5",
"=X c #ABDDC4",
"-X c #A8DEC4",
";X c #A9DEC4",
":X c #A9DFC5",
">X c #AADFC5",
",X c #A9DDC7",
"<X c #ACDEC5",
"1X c #AEDEC4",
"2X c #AEDEC6",
"3X c #AAE0C0",
"4X c #AAE1C1",
"5X c #ABE1C1",
"6X c #A8E0C3",
"7X c #ADE0C1",
"8X c #AEE1C0",
"9X c #ADE3C1",
"0X c #AFE2C1",
"qX c #AFE0C3",
"wX c #ACE2C2",
"eX c #ADE3C3",
"rX c #A9E1C4",
"tX c #A8E0C5",
"yX c #ABE0C4",
"uX c #AAE1C4",
"iX c #AAE2C5",
"pX c #A8E0C7",
"aX c #AAE0C6",
"sX c #ABE3C6",
"dX c #AFE1C4",
"fX c #ADE2C4",
"gX c #ACE3C4",
"hX c #AFE1C6",
"jX c #AEE0C7",
"kX c #ADE2C6",
"lX c #AEE3C7",
"zX c #AEE4C4",
"xX c #A9E1C8",
"cX c #ABE3C8",
"vX c #ACE2C8",
"bX c #ADE2C8",
"nX c #ADE1CA",
"mX c #ACE2CA",
"MX c #ACE4C9",
"NX c #B0E1C1",
"BX c #B3E0C1",
"VX c #B0E1C3",
"CX c #B2E0C3",
"ZX c #B2E0C4",
"AX c #B1E2C5",
"SX c #B0E0C6",
"DX c #B2E0C6",
/* pixels */
">.>.>.>.>.>.>.>.>.>.>.>.>.>.>.>.t t >.>.>.h.q.C.C.C.H.H.H.H.H.H.t t t t t t u t >.>.>.h.h.h.q.q.).&.9 _.>XjXqXQ ( ( ( ( ( ( BXBX",
">.>.>.>.>.>.>.>.>.>.>.>.>.>.>.>.t t >.>.>.h.q.q.C.C.H.H.H.H.H.p.t t t t t t >.>.>.>.>.>.h.h.h.h.&.9 9 B XXjXqXQ L D D H H H +X$X",
">.>.>.>.>.>.>.>.>.>.>.>.>.>.>.>.t >.>.>.>.h.q.q.q.C.H.p.p.p.p.p.>.>.>.>.>.>.>.>.>.>.>.>.>.>.>.>.&.&.9 _.>XjXzXqXqXQ VXVXVXAXAXAX",
">.>.>.>.>.>.>.>.>.>.>.>.>.>.>.>.>.>.>.>.>.h.h.q.q.q.p.p.p.&.&.&.C.C.C.C.q.q.q.h.h.>.>.>.>.>.>.>.n.&.<.~.[.>XiXXX6XqXqX$X1X1X1X1X",
">.>.>.>.>.>.>.>.>.>.>.>.>.>.>.>.>.>.>.>.>.h.h.h.h.h.&.&.<.<.<.f I.I.H.H.H.H.p.p.h.h.>.>.>.>.t t h.{ > 9 f S k * * k k k b b b U.",
">.>.>.>.>.>.>.>.>.>.>.>.>.>.>.>.>.>.>.>.>.h.h.h.>.>.<.<.f f f f H.H.H.H.H.p.p.p.p.>.>.>.>.>.>.t n.>.{ { 9 @ X X @ @ @ @ 9 9 9 &.",
">.>.>.>.>.>.>.>.>.>.>.>.>.>.>.>.>.>.>.>.>.h.>.>.>.>.<.f f f f f (.(.(.(.p.p.&.&.&.&.>.>.>.>.>.>.n.n.>.>.<.<.t f <.<.<.<.n.p.p.p.",
">.>.>.>.>.>.>.>.>.>.>.>.>.>.>.>.>.>.>.>.>.>.>.>.>.>.f f f * * * b b b b b 9 9 9 &.<.&.>.>.>.h.h.{ { { { >.<.<.<.{ &.&.p.p.p.p.p.",
">.>.>.>.>.>.>.>.>.>.>.>.>.>.>.>.>.>.>.>.>.>.>.>.n.t f _.}.cXiX6XVXVXVXjXjXjXjXnXf <.<.>.h.q.h.h.h.h.h.>.>.>.>.>.>.h.h.q.p.H.H.H.",
">.>.>.>.>.>.>.>.>.>.>.>.>.>.>.>.>.>.>.>.>.>.>.>.>.> > f }.cXiXiXD L L Q H 6XXX>Xf f <.h.q.C.C.C.h.h.h.h.h.h.h.h.h.h.q.q.C.C.C.C.",
">.>.>.>.>.>.>.>.>.>.>.>.>.>.>.>.>.>.>.>.>.>.>.>.>.{ 9 _.}.MXMXcXI I Q Q Q qXjXnXf f <.p.q.C.C.C.h.h.h.h.h.h.h.h.h.h.q.q.q.q.C.C.",
">.>.>.>.>.>.>.>.>.>.>.>.>.>.>.>.>.>.>.>.>.h.>.>.n.>.f ~.}.iXcXiXK K U U U 6XiXiXf f &.p.p.C.C.C.h.h.h.h.h.h.h.h.h.h.h.h.h.h.h.h.",
">.>.>.>.>.>.>.>.>.>.>.>.>.>.>.>.>.>.>.>.>.h.h.h.>.{ > 9 <.~.f f     * * * * f f f <.&.p.p.p.p.p.&.&.h.h.h.h.h.h.h.h.h.h.>.>.>.>.",
">.>.>.>.>.>.>.>.>.>.>.>.>.>.>.>.>.>.>.>.>.h.h.h.n.>.&.&.9 9 X X > > > > > > > > <.&.&.&.&.&.p.p.&.&.&.p.p.p.p.p.h.>.>.>.>.>.>.>.",
">.>.>.>.>.>.>.>.>.>.>.>.>.>.>.>.>.>.>.>.>.h.h.h.n.n.&.&.<.<.f f n.n.n.n.n.n.n.n.p.&.&.&.<.<.<.<.&.&.&.&.p.p.p.&.&.&.>.>.>.t t t ",
">.>.>.>.>.>.>.>.>.>.>.>.>.>.>.>.>.>.>.>.>.h.h.h.{ { { &.<.<.<.<.C.C.C.C.C.q.q.q.p.p.&.<.<.<.f f &.&.&.&.&.p.&.&.&.&.<.>.t t t t ",
"q.q.q.q.q.q.>.>.>.>.h.h.` ` _ _ >.>.>.>.>.>.>.>.>.>.>.>.>.>.>.>.>.>.>.>.>.>.>.>.>.>.>.>.>.>.>.>.>.>.>.>.>.h.h.h.{ { { &.<.<.<.<.",
"n.n.n.n.n.<.<.<.>.>.h.h.h.h.h.h.>.>.>.>.>.>.>.>.>.>.>.>.>.>.>.>.>.>.>.>.>.>.>.>.>.>.>.>.>.>.>.>.>.>.>.>.>.h.h.h.n.n.&.&.<.<.f f ",
"9 9 9 9 @ @ X X 9 9 f <.&.{ q.h.>.>.>.>.>.>.>.>.>.>.>.>.>.>.>.>.>.>.>.>.>.>.>.>.>.>.>.>.>.>.>.>.>.>.>.>.>.h.h.h.n.>.&.&.9 9 X X ",
"b b b k k k k k B B B B 9 9 9 &.>.>.>.>.>.>.>.>.>.>.>.>.>.>.>.>.>.>.>.>.>.>.>.>.>.>.>.>.>.>.>.>.>.>.>.>.>.h.h.h.>.{ > 9 <.~.f f ",
"1X1X$X$X$X$X$X$XXX$X>X&X/.b b ~.>.>.>.>.>.>.>.>.>.>.>.>.>.>.>.>.>.>.>.>.>.>.>.>.>.>.>.>.>.>.>.>.>.>.>.>.>.h.>.>.n.>.f ~.}.iXiXiX",
"VXVXVXVXVXVXVXVXqXAXAX>X/.b b U.>.>.>.>.>.>.>.>.>.>.>.>.>.>.>.>.>.>.>.>.>.>.>.>.>.>.>.>.>.>.>.>.>.>.>.>.>.>.>.>.>.{ 9 _.}.MXMXcX",
"$X$X$X$X$X$X$X$X$XjXjX&XB @ 9 b >.>.>.>.>.>.>.>.>.>.>.>.>.>.>.>.>.>.>.>.>.>.>.>.>.>.>.>.>.>.>.>.>.>.>.>.>.>.>.>.>.> > f }.cXiXiX",
"jXjXjXjXjXjXjXjXiXnXnX>X~.9 &.~.>.>.>.>.>.>.>.>.>.>.>.>.>.>.>.>.>.>.>.>.>.>.>.>.>.>.>.>.>.>.>.>.>.>.>.>.>.>.>.>.n.t f _.}.cXiX6X",
"* * * * * * * * f f f f <.&.&.p.>.>.>.>.>.>.>.>.>.>.>.>.>.>.>.>.>.>.>.>.>.>.>.>.>.>.>.>.>.>.>.>.>.>.>.>.>.>.>.>.>.>.f f f * * * ",
"f f f f f f t t t t >.>.h.h.h.h.>.>.>.>.>.>.>.>.>.>.>.>.>.>.>.>.>.>.>.>.>.>.>.>.>.>.>.>.>.>.>.>.>.>.>.>.>.h.>.>.>.>.<.f f f f f ",
">.>.>.>.>.>.>.>.>.>.>.h.h.h.P.P.>.>.>.>.>.>.>.>.>.>.>.>.>.>.>.>.>.>.>.>.>.>.>.>.>.>.>.>.>.>.>.>.>.>.>.>.>.h.h.h.>.>.<.<.f f f f ",
"q.q.q.h.h.>.>.>.>.>.h.h.h.h.P.P.>.>.>.>.>.>.>.>.>.>.>.>.>.>.>.>.>.>.>.>.>.>.>.>.>.>.>.>.>.>.>.>.>.>.>.>.>.h.h.h.h.h.&.&.<.<.<.f ",
"C.C.C.q.q.h.h.>.>.>.>.h.h.h.h.h.>.>.>.>.>.>.>.>.>.>.>.>.>.>.>.>.>.>.>.>.>.>.>.>.>.>.>.>.>.>.>.>.>.>.>.>.>.h.h.q.q.q.p.p.p.&.&.&.",
"H.H.H.p.p.p.>.>.>.>.>.>.>.>.h.h.>.>.>.>.>.>.>.>.>.>.>.>.>.>.>.>.>.>.>.>.>.>.>.>.>.>.>.>.>.>.>.>.t >.>.>.>.h.q.q.q.C.H.p.p.p.p.p.",
"H.H.H.H.p.p.&.&.<.<.<.<.>.>.>.>.>.>.>.>.>.>.>.>.>.>.>.>.>.>.>.>.>.>.>.>.>.>.>.>.>.>.>.>.>.>.>.>.t t >.>.>.h.q.q.C.C.H.H.H.H.p.p.",
"H.H.H.p.p.p.&.&.&.f f f f <.<.<.>.>.>.>.>.>.>.>.>.>.>.>.>.>.>.>.>.>.>.>.>.>.>.>.>.>.>.>.>.>.>.>.t t >.>.>.h.q.C.C.C.H.H.H.H.p.p.",
">.>.>.>.>.>.>.>.>.>.>.>.>.>.>.>.t t t t t t u t >.>.>.h.h.h.q.q.).&.9 _.>XjXqXQ ( ( ( ( ( ( VXVXU qXqXXXB 9 &.n.p.h.h.h.>.>.>.>.",
">.>.>.>.>.>.>.>.>.>.>.>.>.>.>.>.t t t t t t >.>.>.>.>.>.h.h.h.h.&.9 9 B XXjXqXQ L D D D H H $X$XU qXqXXXB 9 > &.p.q.h.h.>.>.>.>.",
">.>.>.>.>.>.>.>.>.>.>.>.>.>.>.>.>.>.>.>.>.>.>.>.>.>.>.>.>.>.>.>.&.&.9 _.>XjXzXqXqXQ VXVXVXAXAXAXqXzXjX>X_.9 <.n.p.q.h.h.>.>.>.>.",
">.>.>.>.>.>.>.>.>.>.>.>.>.>.>.>.C.C.C.C.q.q.q.h.h.>.>.>.>.>.>.>.n.&.<.~.}.>XiXXX6XqXqX$X1X1X1X1XXXXX>X}.~.&.&.n.p.q.h.h.>.>.>.t ",
">.>.>.>.>.>.>.>.>.>.>.>.>.>.>.>.I.I.H.H.H.H.p.p.h.h.>.>.>.>.t t h.{ > 9 f S B * * k k k b b b U.B B ~.~.&.&.{ p.p.q.h.h.>.>.>.t ",
">.>.>.>.>.>.>.>.>.>.>.>.>.>.>.>.H.H.H.H.H.p.p.p.p.>.>.>.>.>.>.t n.>.{ { 9 9 X X @ @ @ @ 9 9 9 &.9 9 9 &.&.{ p.p.q.q.h.h.>.>.>.t ",
">.>.>.>.>.>.>.>.>.>.>.>.>.>.>.>.(.(.(.(.p.p.&.&.&.&.>.>.>.>.>.>.n.n.>.>.<.<.t f <.<.<.<.n.p.p.p.&.&.p.p.p.p.n.n.q.q.h.h.>.>.>.t ",
">.>.>.>.>.>.>.>.>.>.>.>.>.>.>.>.b b b b b 9 9 9 &.<.&.>.>.>.h.h.{ { { { h.<.<.<.{ &.&.p.p.p.p.p.&.&.p.p.p.p.p.q.q.q.h.>.>.>.>.t ",
">.>.>.>.>.>.>.>.>.>.>.>.>.>.>.>.VXVXVXjXjXjXjXnXf <.<.>.h.q.h.h.h.h.h.>.>.>.>.>.>.h.h.q.p.H.H.H.p.p.p.p.p.q.q.q.q.h.h.>.>.>.>.>.",
">.>.>.>.>.>.>.>.>.>.>.>.>.>.>.>.D L L Q H 6XXX>Xf f <.h.q.C.C.C.h.h.h.h.h.h.h.h.h.h.q.q.C.C.C.C.h.h.q.q.q.q.q.q.h.h.h.>.>.>.>.>.",
">.>.>.>.>.>.>.>.>.>.>.>.>.>.>.>.I I Q Q Q qXjXnXf f <.p.q.C.C.C.h.h.h.h.h.h.h.h.h.h.q.q.q.q.C.C.h.h.h.h.h.h.h.h.h.h.>.>.>.>.>.>.",
">.>.>.>.>.>.>.>.>.>.>.>.>.>.>.>.K K U U U 6XiXiXf f &.p.p.C.C.C.h.h.h.h.h.h.h.h.h.h.h.h.h.h.h.h.h.h.h.h.h.h.h.>.>.>.>.>.>.>.>.>.",
">.>.>.>.>.>.>.>.>.>.>.>.>.>.>.>.    * * * * f f f <.&.p.p.p.p.p.&.&.h.h.h.h.h.h.h.h.h.h.>.>.>.>.>.>.>.>.>.>.>.>.>.>.>.>.>.>.>.>.",
">.>.>.>.>.>.>.>.>.>.>.>.>.>.>.>.> > > > > > > > <.&.&.&.&.&.p.p.&.&.&.p.p.p.p.p.h.>.>.>.>.>.>.>.>.>.>.>.>.>.>.>.>.>.>.>.>.h.h.h.",
">.>.>.>.>.>.>.>.>.>.>.>.>.>.>.>.n.n.n.n.n.n.n.n.p.&.&.&.<.<.<.<.&.&.&.&.p.p.p.&.&.&.>.>.>.t t t >.>.>.>.>.>.>.>.>.>.>.>.>.h.h.n.",
">.>.>.>.>.>.>.>.>.>.>.>.>.>.>.>.C.C.C.C.C.q.q.q.p.p.&.<.<.<.f f &.&.&.&.&.p.&.&.&.&.<.>.t t t t >.>.t t t t t t >.>.>.>.>.h.h.n.",
">.>.>.>.>.>.>.>.>.>.>.>.>.>.>.>.>.>.>.>.>.h.h.h.{ { { &.<.<.<.<.C.C.C.C.C.q.q.q.p.p.&.<.<.<.f f ).&.9 _.>XjXqXQ ( ( ( ( ( ( BXBX",
">.>.>.>.>.>.>.>.>.>.>.>.>.>.>.>.>.>.>.>.>.h.h.h.n.n.&.&.<.<.f f n.n.n.n.n.n.n.n.p.&.&.&.<.<.<.<.&.9 9 B XXjXqXQ L D D H H H +X$X",
">.>.>.>.>.>.>.>.>.>.>.>.>.>.>.>.>.>.>.>.>.h.h.h.n.>.&.&.9 9 X X > > > > > > > > <.&.&.&.&.&.p.p.&.&.9 _.>XjXzXqXqXQ VXVXVXAXAXAX",
">.>.>.>.>.>.>.>.>.>.>.>.>.>.>.>.>.>.>.>.>.h.h.h.>.{ > 9 <.~.f f       * * f f f f <.&.p.p.p.p.p.n.&.<.~.[.>XiXXX6XqXqX$X1X1X1X1X",
">.>.>.>.>.>.>.>.>.>.>.>.>.>.>.>.>.>.>.>.>.h.>.>.n.>.f ~.}.iXcXiXK K K U U 6XiXiXf f &.p.p.C.C.q.h.{ > 9 f S k * * k k k b b b U.",
">.>.>.>.>.>.>.>.>.>.>.>.>.>.>.>.>.>.>.>.>.>.>.>.>.{ 9 _.}.MXMXcXI I Q ~ Q qXjXnXf f <.p.q.C.C.C.n.>.{ { 9 @ X X @ @ @ @ 9 9 9 &.",
">.>.>.>.>.>.>.>.>.>.>.>.>.>.>.>.>.>.>.>.>.>.>.>.>.> > f }.cXiXiXD L L Q H 6XXX>Xf f <.h.q.C.q.C.n.n.>.>.<.<.t f <.<.<.<.n.p.p.p.",
">.>.>.>.>.>.>.>.>.>.>.>.>.>.>.>.>.>.>.>.>.>.>.>.n.t f _.}.cXiX6XVXVXVXjXjXjXnXnXf <.<.>.h.q.h.h.{ { { { >.<.<.<.{ &.&.p.p.p.p.p.",
">.>.>.>.>.>.>.>.>.>.>.>.>.>.>.>.>.>.>.>.>.>.>.>.>.>.f f f * * * b b b b b 9 9 9 &.<.&.>.>.>.h.h.h.h.h.>.>.>.>.>.>.h.h.q.p.H.H.H.",
">.>.>.>.>.>.>.>.>.>.>.>.>.>.>.>.>.>.>.>.>.h.>.>.>.>.<.f f f f f (.(.(.(.p.p.&.&.&.&.>.>.>.>.>.>.h.h.h.h.h.h.h.h.h.h.q.q.C.C.C.C.",
">.>.>.>.>.>.>.>.>.>.>.>.>.>.>.>.>.>.>.>.>.h.h.h.>.>.<.<.f f f f H.H.H.H.H.p.p.p.p.>.>.>.>.>.>.t h.h.h.h.h.h.h.h.h.h.q.q.q.q.C.C.",
">.>.>.>.>.>.>.>.>.>.>.>.>.>.>.>.>.>.>.>.>.h.h.h.h.h.&.&.<.<.<.f I.I.H.H.H.H.p.p.h.h.<.>.>.>.t t h.h.h.h.h.h.h.h.h.h.h.h.h.h.h.h.",
">.>.>.>.>.>.>.>.>.>.>.>.>.>.>.>.>.>.>.>.>.h.h.q.q.q.p.p.p.&.&.&.C.C.C.C.q.q.q.h.h.>.>.>.>.>.>.>.&.&.h.h.h.h.h.h.h.h.h.h.>.>.>.>.",
">.>.>.>.>.>.>.>.>.>.>.>.>.>.>.>.t >.>.>.>.h.q.q.q.C.H.p.p.p.p.p.>.>.>.>.>.>.>.>.>.>.>.>.>.>.>.>.&.&.&.p.p.p.p.p.h.>.>.>.>.>.>.>.",
">.>.>.>.>.>.>.>.>.>.>.>.>.>.>.>.t t >.>.>.h.q.q.C.C.H.H.H.H.H.p.t t t t u t >.>.>.>.>.>.h.h.h.h.&.&.&.&.p.p.p.&.&.&.>.>.>.t t t ",
">.>.>.>.>.>.>.>.>.>.>.>.>.>.>.>.t t >.>.>.h.q.C.C.C.H.H.H.H.H.H.t t t t u u t t >.>.>.h.h.h.q.q.&.&.&.&.&.p.&.&.&.&.<.>.t t t t "
};
