/* XPM */
static char *_46591ddccc94302830f41d8ddc3ca74XuzSWJ8x2gD1copE[] = {
/* columns rows colors chars-per-pixel */
"64 64 125 2 ",
"   c #C8BF96",
".  c #CAB69E",
"X  c #C9BF9B",
"o  c #CABC9F",
"O  c #CDB7A0",
"+  c #CFB9A2",
"@  c #CBBDA3",
"#  c #CCBEA1",
"$  c #CEBCA4",
"%  c #CABAAB",
"&  c #CCBBA9",
"*  c #CDBCAA",
"=  c #CBBBAC",
"-  c #CBB9AF",
";  c #CCBCAD",
":  c #D0BEA6",
">  c #D4BEA7",
",  c #CCBAB0",
"<  c #C9C097",
"1  c #C9C099",
"2  c #CAC09C",
"3  c #DFD399",
"4  c #DFD29E",
"5  c #E7D28F",
"6  c #E8CF96",
"7  c #E7CF9F",
"8  c #EACF9A",
"9  c #EBCF9D",
"0  c #ECCD9F",
"q  c #E7D291",
"w  c #E7D593",
"e  c #E7D197",
"r  c #E8D390",
"t  c #EAD296",
"y  c #E9D795",
"u  c #E5D298",
"i  c #E0D49A",
"p  c #E7D49A",
"a  c #E0D39F",
"s  c #E6D29F",
"d  c #E2D59E",
"f  c #E8D298",
"g  c #E8D499",
"h  c #EAD09F",
"j  c #E9D69C",
"k  c #D3C3A2",
"l  c #D4C4A3",
"z  c #DEC4A9",
"x  c #E1CFA7",
"c  c #E7CEA5",
"v  c #EBCEA2",
"b  c #EDCEA0",
"n  c #E9CCA4",
"m  c #EBCEA4",
"M  c #ECCCA5",
"N  c #E5C3AA",
"B  c #E6C4AB",
"V  c #E1C7AC",
"C  c #E7C5AC",
"Z  c #E3CFAA",
"A  c #E7CFA9",
"S  c #E6CBAD",
"D  c #E5CEAF",
"F  c #EBCDAB",
"G  c #EACBAE",
"H  c #ECCAAE",
"J  c #E8CDAF",
"K  c #EDCCAD",
"L  c #E2D2A1",
"P  c #E6D1A2",
"I  c #E2D5A1",
"U  c #E4D4A3",
"Y  c #E7D0A6",
"T  c #E9D1A1",
"R  c #E9D0A7",
"E  c #EAD4A5",
"W  c #E2D0A8",
"Q  c #E4D2AA",
"!  c #E5D1AC",
"~  c #EBD2A9",
"^  c #E8D0AC",
"/  c #E2CFB1",
"(  c #EBCBB2",
")  c #EDCBB2",
"_  c #E9CEB1",
"`  c #EDCEB1",
"'  c #F3CFB9",
"]  c #E4D1B3",
"[  c #EBD0B3",
"{  c #EAD3B4",
"}  c #EFD0B4",
"|  c #EBD4B5",
" . c #F5D3B8",
".. c #FBF5DD",
"X. c #FCF6DE",
"o. c #FFFBDF",
"O. c #FEF7E5",
"+. c #FFFFE3",
"@. c #FFF8E6",
"#. c #FFFFE6",
"$. c #F3F6ED",
"%. c #FFFBE9",
"&. c #FFFFEA",
"*. c #FFF9EF",
"=. c #FFFFEF",
"-. c #EAFCFF",
";. c #ECFEFF",
":. c #F7FDF1",
">. c #F0F9F4",
",. c #F3FCF7",
"<. c #FDFAF1",
"1. c #F9FFF3",
"2. c #FFFDF3",
"3. c #FAFDF4",
"4. c #FFFEF4",
"5. c #FDF7FB",
"6. c #FFF6FF",
"7. c #F2FFFF",
"8. c #F5FFFF",
"9. c #FFF8FA",
"0. c #F9FFFB",
"q. c #FFFCFA",
"w. c #FFF9FF",
"e. c #FBFFFD",
"r. c #FFFFFD",
/* pixels */
";.;.7.7.8.8.0.0.r.r.w.w.w.w.w.w.w.w.q.q.2.2.2.2.2.2.w.w.w.w.6.6.6.6.w.w.w.w.2.2.=.2.2.2.q.q.w.w.w.w.w.w.5.5.r.r.e.e.8.8.7.7.-.-.",
";.;.7.7.8.8.0.0.r.r.w.w.w.w.w.w.w.w.q.q.2.2.2.2.2.2.9.9.w.w.6.6.6.6.w.w.w.w.2.2.=.2.2.2.q.q.w.w.w.w.w.w.5.5.r.r.e.e.8.8.7.7.-.-.",
"7.7.8.8.,.,.$.$.<.<.q.q.9.9.w.w.q.q.2.2.=.=.#.#.&.&.2.2.w.w.w.w.w.w.w.w.2.2.&.&.#.#.=.=.2.2.q.q.w.w.9.9.q.q.<.<.$.$.>.>.8.8.7.7.",
"7.7.8.8.,.,.$.$.<.<.q.q.9.9.w.w.q.q.2.2.=.=.#.#.&.&.2.2.w.w.w.w.w.w.w.w.2.2.&.&.#.#.=.=.2.2.q.q.w.w.9.9.q.q.<.<.$.$.>.>.8.8.7.7.",
"8.8.>.>.1.1.=.=.%.%.=.=.<.<.<.<.= = @ @ X X < < 1 1 @ @ & & , , , , & & @ @ 1 1 < < X X @ @ = = *.*.<.<.=.=.&.&.=.=.:.:.>.>.8.8.",
"8.8.>.>.1.1.=.=.%.%.=.=.<.<.<.<.= = @ @ X X < < 1 1 @ @ & & , , = = & & @ @ 1 1 < < X X @ @ = = *.*.<.<.=.=.&.&.=.=.:.:.>.>.8.8.",
"e.e.1.1.=.=.X.X.o.o.$ $ . . > > / / W W a a i i i i L L Z Z / / / / Z Z L L i i i i a a W W / / : : . . $ $ o.o.....=.=.1.1.e.e.",
"e.e.1.1.=.=.X.X.o.o.$ $ . . > > / / W W a a i i i i L L Z Z / / / / Z Z L L i i i i a a W W / / : : . . $ $ o.o.....=.=.1.1.e.e.",
"r.r.<.<.O.O.+.+.l l | | z z _ _ ^ ^ T T p p w w w w g g T T R R R R T T g g w w w w p p T T ^ ^ _ _ z z { { k k +.+.@.@.<.<.r.r.",
"r.r.<.<.O.O.+.+.l l | | z z _ _ ^ ^ T T p p w w w w g g T T R R R R T T g g w w w w p p T T ^ ^ _ _ z z { { k k +.+.@.@.<.<.r.r.",
"r.r.q.q.=.=.+ + D D J J G G J J F F v v f f r r r r t t 9 9 v v v v 9 9 t t r r r r f f v v F F ` ` G G S S D D $ $ =.=.q.q.w.w.",
"r.r.q.q.=.=.+ + D D J J G G J J F F v v f f r r r r t t 9 9 v v v v 9 9 t t r r r r f f v v F F ` ` G G S S D D $ $ =.=.q.q.w.w.",
"w.w.w.w.<.<.+ + V V } }  . .B B H H m m 9 9 t t t t 8 8 0 0 M M M M 0 0 8 8 t t t t 9 9 m m H H B B  . .` ` V V + + <.<.9.9.w.w.",
"w.w.w.w.<.<.+ . V V } }  . .B B H H m m 9 9 t t t t 8 8 0 0 M M M M 0 0 8 8 t t t t 9 9 m m H H B B  . .` ` V V + + <.<.w.w.w.w.",
"6.6.w.w.<.<.+ + _ _ G G N N  . .) ) F F m m h h h h v v M M K K K K M M v v h h h h m m F F ) ) ' ' N N ` ` _ _ + + *.<.w.w.w.w.",
"6.6.w.w.<.<.+ + _ _ G G N N  . .) ) F F m m h h h h v v M M K K K K M M v v h h h h m m F F ) ) ' ' N N ` ` _ _ + + <.<.w.w.w.w.",
"w.w.9.9.; ; / / ^ ^ F F H H ) ) ) ) J J F F R R m m m m J J ( ( ( ( J J m m m m R Y F F J J ) ) ` ` G G F F A A ] ] % % q.q.w.w.",
"w.w.9.9.; ; / / ^ ^ F F H H ) ) ) ) J J F F R R m m m m J J ( ( ( ( J J m m m m R Y F F J J ) ) ` ` G G F F A A ] ] % % q.q.w.w.",
"q.q.2.2.$ $ x x E E v v m m F F J J J J m m Y Y Y Y m m J J _ _ _ _ J J m m R R Y Y m m J J J J K K m m v v P P Q Q @ @ 2.2.q.q.",
"q.q.2.2.$ $ x x E E v v m m F F J J J J m m Y Y Y Y m m J J _ _ _ _ J J m m R R Y Y m m J J J J K K m m v v P P Q Q @ @ 2.2.q.q.",
"4.4.&.&.2 2 4 4 j j e e h h m m F F m m Y Y P P P P Y Y F F J J J J F F Y Y P P P P Y Y m m F F M M 8 8 f f u u I I X X &.&.2.2.",
"4.4.&.&.2 2 4 4 j j e e h h m m F F m m Y Y P P P P Y Y F F J J J J F F Y Y P P P P Y Y m m F F M M 8 8 f f u u I I X X &.&.2.2.",
"2.2.#.#.1 1 3 3 y y q q f f h h R R T R P P s s s s P P Y Y A A A A Y Y P P s s s s P P Y Y R R T T 6 6 r r q q d d     #.#.2.2.",
"2.2.#.#.1 1 3 3 y y q q f f T h R R R R P P s s s s P P Y Y A A A A Y Y P P s s s s P P Y Y R R T T 6 6 r r q q d d     #.&.2.2.",
"4.4.&.&.1 1 3 3 y y 5 5 t t h h m m R R P P s s s s P P Y Y Y Y Y Y Y Y P P s s s s P P R R m m T T t t r r q q d d   X &.&.2.2.",
"4.4.&.&.1 1 3 3 y y 5 5 t t h h m m R R P P s s s s P P Y Y Y Y Y Y Y Y P P s s s s P P R R m m T T t t r r q q d d X X &.&.2.2.",
"r.r.2.2.# # L L g g t t f f v v m m m m Y Y P P P P P P Y Y m m m m Y Y P P P P P P Y Y m m m m b b 8 8 t t e e U U o o 2.2.w.w.",
"r.r.2.2.# # L L g g t t f f v v m m m m Y Y P P P P P P Y P m m m m Y Y P P P P P P Y Y m m m m b b 8 8 t t e e U U o o 2.2.w.w.",
"w.w.w.w.* * Z Z T T 9 9 b b M M J J J J F F Y Y Y Y Y Y m m F F A A c c Y Y Y Y Y Y F F J J J J F F 9 9 9 9 7 7 ! ! % % w.w.w.w.",
"w.w.w.w.* * Z Z T T 9 9 b b M M J J J J F F Y Y Y Y Y Y m m A F A F c c Y Y Y Y Y Y F F J J J J F F 9 9 9 9 7 7 ! ! % % w.w.w.w.",
"w.w.6.6., , / / ~ ~ v v M M K K ( ( _ _ J J A A Y Y c c A A J F F F F F m m Y Y A A J J _ _ ( ( K K m m v v c c ] ] = = w.w.6.6.",
"w.w.6.6., , / / ~ ~ v v M M K K ( ( _ _ J J A A Y Y c c A F F F F F F F m m Y Y A A J J _ _ ( ) K K m m v v c c ] ] = = w.w.6.6.",
"w.w.6.6., , / / ~ ~ v v M M K K ( ( _ _ J J A A Y Y c m A A F F F F A A m m Y Y A A J J _ _ ( ( K K m m v v c c ] ] = = w.w.6.6.",
"w.w.6.6., , / / ~ ~ v v M M K K ( ( _ _ J J A A Y Y m m A F F F F F A A m m Y Y A A J J _ _ ( ( K K m m b b c c ] ] = = w.w.6.6.",
"w.w.w.w.* * Z Z T T 9 9 b b M M J J J J F F Y Y Y Y Y Y m m F F A A m m Y Y Y Y Y Y A F J J J J F F 9 9 0 9 7 7 ! ! % % w.w.w.w.",
"w.w.w.w.* * Z Z T T 9 9 b b M M J J J J F F Y Y Y Y Y Y m m F F A A c m Y Y Y Y Y Y F F J J J J F F 9 9 0 0 7 7 ! ! % % w.w.w.w.",
"r.r.2.<.# # L L g g t t f f v v m m m m Y Y P P P P P P Y Y m m m m Y Y P P P P P P Y Y m m m m b b 8 8 t t e e U U o o 2.2.w.w.",
"r.r.2.2.# # L L g g t t f f v v m m m m Y Y P P P P P P Y Y m m m m Y Y P P P P P P Y Y m m m m b b 8 8 t t e e U U o o 2.2.w.w.",
"4.2.&.&.1 1 3 3 y y 5 5 t t T h m m R R P P s s s s s s Y Y Y Y Y Q Y Y P s s s s s P P R R m m T T t t q q q q d d   X &.&.2.2.",
"4.4.&.&.1 1 3 3 y y r r t t h h m m R R P P s s s s s s Y Y Y Y Y Q Y Y P s s s s s P P R R m m T T t e q q q q d d X X &.&.2.2.",
"2.2.#.#.1 1 3 3 y y q q f f h h R R Y Y P P s s s s P P Y Y F F A A Y Y P P s P s s P P Y Y R R T T 6 6 r r q q i i     &.&.2.2.",
"2.2.#.#.1 1 3 3 y y q q f f h h R R Y Y P P s s s s P P Y Y F F A A Y Y P P s P s s P P Y Y R R T T 6 6 r r q q i i     &.&.2.2.",
"4.4.&.&.2 2 4 4 j j e e h h m m F F m m Y Y P P P P Y Y F F J J J J F F Y Y P P P P Y Y m m F F M M 8 8 f f u u I I X X =.=.2.2.",
"4.4.&.&.2 2 4 4 j j e e h h m m F F m m Y Y P P P P Y Y F F J J D J F F Y Y P P P P Y Y m m F F M M 8 8 f f u u I I X X =.=.2.2.",
"q.q.2.2.$ $ x x E E v v m m F F J J J J m m Y Y R R m m J J _ _ _ _ J J m m R Y Y Y m m J J J J K K m m v v P P Q Q @ @ 2.2.q.q.",
"q.q.2.2.$ $ x x E E v v m m F F J J J J m m Y Y R R m m J J _ _ _ _ J J m m R R Y Y m m J J J J K K m m v v P P Q Q @ @ 2.2.q.q.",
"w.w.9.9.; ; / / ^ ^ F F H H ) ) ) ) J J F F Y Y m m m m J J ( ( ( ( J J m m m m R R F F J J ) ) ` ` G G F F A A ] ] % % q.q.w.w.",
"w.w.9.9.; ; / / ^ ^ F F H H ) ) ) ) J J F F Y Y m m m m J J ( ( ) ( J J m m m m R R F F J J ) ) ` ` G G F F A A ] ] % % q.q.w.w.",
"6.6.w.w.*.*.O . _ _ ` ` B B ' ' ) ) F F m m h h h h v v M M K K K K M M v v h h h h m m F F ) )  . .N N G G _ _ + + <.<.w.w.6.6.",
"6.6.w.w.*.*.. . _ _ ` ` B B ' ' ) ) F F m m h h h h v v M M K K K K M M v v h h h h m m F F ) )  . .N N G G _ _ + + <.<.w.w.6.6.",
"w.w.w.w.<.<.. . V V } }  . .C C H H m m 9 9 t t t t 8 8 0 0 M M M M 0 0 8 8 t t t t 9 9 m m H H B B  . .} } V V + + <.<.w.w.w.w.",
"w.w.w.w.<.<.. . V V } }  . .C C H H m m 9 9 t t t t 8 8 0 0 M M M M 0 0 8 8 t t t t 9 9 m m H H B B  . .} } V V + + <.<.w.w.w.w.",
"w.w.q.q.=.=.+ # D D S S G G ` ` F F v v f f r r r r t t 9 9 v v v v 9 9 t t r r r r f f v v F F G G G G J J D D + + =.=.q.q.r.r.",
"w.w.q.q.=.=.# # D D S S G G ` ` F F v v f f r r r r t t 9 9 v v v v 9 9 t t r r r r f f v v F F G G G G J J D D + + =.=.q.q.r.r.",
"r.r.<.<.@.@.+.+.l l { { z z [ [ ^ ^ T T p p w w w w g g T T R R R R T T g g w w w w p p T T ^ ^ _ _ z z | | l l +.+.O.O.<.<.r.r.",
"r.r.<.<.@.@.+.+.l l { { z z [ [ ^ ^ T T p p w w w w g g T T R R R R T T g g w w w w p p T T ^ ^ _ _ z z | | l l +.+.O.O.<.<.r.r.",
"e.e.1.1.=.=.....o.o.: : . . : : / / W W a a i i i i L L Z Z / / / / Z Z L L i i i i a a W W / / > > . . $ $ o.o.X.X.=.=.3.3.e.e.",
"e.e.1.1.=.=.....o.o.: : . . : : / / W W a a i i i i L L Z Z / / / / Z Z L L i i i i a a W W / / > > . . $ $ o.o.X.X.=.=.3.3.e.e.",
"8.8.>.>.:.:.=.=.&.&.=.=.<.<.*.*.= = @ @ X X < < 1 1 @ @ & & , , , , & & @ @ 1 1 < < X X @ @ = = <.<.<.<.=.=.%.%.=.=.1.1.>.>.8.8.",
"8.8.>.>.:.:.=.=.&.&.=.=.<.<.*.*.= = @ @ X X < < 1 1 @ @ & & , , , , & & o o 1 1 < < X X @ @ = = <.<.<.<.=.=.%.%.=.=.1.1.>.>.8.8.",
"7.7.8.8.>.>.$.$.<.<.q.q.9.9.w.w.q.q.2.2.=.=.#.#.&.&.2.2.w.w.w.w.w.w.w.w.2.2.&.&.#.#.=.=.2.2.q.q.w.w.9.9.q.q.<.<.$.$.,.,.8.8.7.7.",
"7.7.8.8.>.>.$.$.<.<.q.9.9.9.w.w.q.q.2.2.=.=.#.#.&.&.2.2.w.w.w.w.w.w.w.w.2.2.&.&.#.#.=.=.2.2.q.q.w.w.9.9.q.q.<.<.$.$.,.,.8.8.7.7.",
"-.-.7.7.8.8.e.e.r.r.6.6.w.w.w.w.w.w.q.q.2.2.2.2.2.2.9.w.w.w.w.6.6.6.w.w.w.w.2.2.2.2.2.2.q.q.w.w.6.6.w.w.w.w.r.r.0.0.8.8.7.7.;.;.",
"-.-.7.7.8.8.e.e.r.r.6.6.w.w.w.w.w.w.q.q.2.2.2.2.2.2.9.w.w.w.6.6.6.6.w.w.w.w.2.2.2.2.2.2.q.q.w.w.6.6.w.w.w.w.r.r.0.0.8.8.7.7.;.;."
};
