/* XPM */
static char * egg_xpm[] = {
"64 64 664 2",
"  	c None",
". 	c #F5F6E9",
"+ 	c #F1F1E4",
"@ 	c #EAE7D9",
"# 	c #E9E6D8",
"$ 	c #E9E5D7",
"% 	c #E6E0D3",
"& 	c #E0D8CA",
"* 	c #DCD3C4",
"= 	c #DBD0C2",
"- 	c #DACFC1",
"; 	c #DAD0C1",
"> 	c #F2F3E6",
", 	c #EBE8DB",
"' 	c #E1D9CB",
") 	c #D6C9BA",
"! 	c #CEBDAC",
"~ 	c #CAB6A4",
"{ 	c #C9B3A2",
"] 	c #C9B4A2",
"^ 	c #EFEEE0",
"/ 	c #E8E4D5",
"( 	c #DDD3C3",
"_ 	c #D0BFAD",
": 	c #C4AB96",
"< 	c #BD9E87",
"[ 	c #BA9A81",
"} 	c #BB9B83",
"| 	c #E8E3D5",
"1 	c #E2DBCB",
"2 	c #D9CDBB",
"3 	c #CEBBA5",
"4 	c #C3A98D",
"5 	c #BD9E7D",
"6 	c #BA9977",
"7 	c #BA9976",
"8 	c #BB9A78",
"9 	c #BB9B79",
"0 	c #E6E1D4",
"a 	c #E0D9CB",
"b 	c #DCD2C3",
"c 	c #D8CCBA",
"d 	c #D4C5AF",
"e 	c #CFBEA1",
"f 	c #CBB794",
"g 	c #C9B38B",
"h 	c #C8B188",
"i 	c #C8B187",
"j 	c #C8B288",
"k 	c #C8B289",
"l 	c #C9B28B",
"m 	c #CFBDAC",
"n 	c #CDBAA4",
"o 	c #CFBDA1",
"p 	c #D3C3A0",
"q 	c #D7C9A1",
"r 	c #DACDA1",
"s 	c #DACEA0",
"t 	c #DACDA0",
"u 	c #F3F3E6",
"v 	c #C6AE97",
"w 	c #C5AD90",
"x 	c #CDBA96",
"y 	c #D8CBA2",
"z 	c #E2DAAD",
"A 	c #E8E2B3",
"B 	c #EAE5B5",
"C 	c #E9E4B4",
"D 	c #E9E3B4",
"E 	c #E9E4B5",
"F 	c #EAE5B6",
"G 	c #C5AD97",
"H 	c #E7E3D5",
"I 	c #EEEDE0",
"J 	c #C7AF8B",
"K 	c #D1BF96",
"L 	c #DED3A6",
"M 	c #F0EDBC",
"N 	c #F2F0BF",
"O 	c #F2EFBF",
"P 	c #F1EEBE",
"Q 	c #F1EEBF",
"R 	c #F1EEC1",
"S 	c #F1EFC3",
"T 	c #F1EFC4",
"U 	c #F1F0C4",
"V 	c #F2F1C3",
"W 	c #F2F1C1",
"X 	c #F0EDBD",
"Y 	c #C6AF8B",
"Z 	c #C5AC90",
"` 	c #CCB9A4",
" .	c #D6CABA",
"..	c #E5E2D6",
"+.	c #E8E7DB",
"@.	c #D3C4AE",
"#.	c #CFBCA0",
"$.	c #CDB996",
"%.	c #E5DDAD",
"&.	c #EEEAB9",
"*.	c #F3F1BF",
"=.	c #F5F2C1",
"-.	c #F5F1C2",
";.	c #F4F0C2",
">.	c #F4F0C4",
",.	c #F4F1C8",
"'.	c #F4F2CC",
").	c #F4F3CF",
"!.	c #F4F4CF",
"~.	c #F5F5CD",
"{.	c #F5F5C8",
"].	c #F3F2C2",
"^.	c #EEEABA",
"/.	c #CCB996",
"(.	c #CCBBA1",
"_.	c #CFC1AE",
":.	c #D3C9BB",
"<.	c #D6CFC3",
"[.	c #DBD6CC",
"}.	c #E2DFD4",
"|.	c #EBE7B5",
"1.	c #F0EEBC",
"2.	c #F3F1C0",
"3.	c #F4F1C1",
"4.	c #F4EFC2",
"5.	c #F4EDC3",
"6.	c #F4EDC7",
"7.	c #F4EFCD",
"8.	c #F4F1D3",
"9.	c #F4F3D7",
"0.	c #F4F5D6",
"a.	c #F4F5D3",
"b.	c #F4F5CC",
"c.	c #F3F3C5",
"d.	c #F0EEBD",
"e.	c #D6CAA2",
"f.	c #CEC0A0",
"g.	c #C7B8A1",
"h.	c #C3B4A5",
"i.	c #C5B8AD",
"j.	c #CEC5BB",
"k.	c #DBD6CB",
"l.	c #E9E7DB",
"m.	c #E3DAAE",
"n.	c #F2F0C0",
"o.	c #F3F0C1",
"p.	c #F3EEC1",
"q.	c #F3ECC1",
"r.	c #F3EAC3",
"s.	c #F3EAC7",
"t.	c #F3ECCF",
"u.	c #F3EFD6",
"v.	c #F3F2DB",
"w.	c #F3F3DB",
"x.	c #F3F3D6",
"y.	c #F3F3CE",
"z.	c #F3F2C6",
"A.	c #E1D9AE",
"B.	c #D3C7A2",
"C.	c #C3B296",
"D.	c #B7A291",
"E.	c #B8A398",
"F.	c #C4B6AC",
"G.	c #D5CDC3",
"H.	c #E5E1D5",
"I.	c #F3F3C4",
"J.	c #F3F2C5",
"K.	c #F3F0C6",
"L.	c #F3EDC5",
"M.	c #F3E8C4",
"N.	c #F3E8C7",
"O.	c #F3EACF",
"P.	c #F3EDD6",
"Q.	c #F3F0DB",
"R.	c #F3F1DB",
"S.	c #F3F2D6",
"T.	c #F3F2CE",
"U.	c #F3F2C1",
"V.	c #F3F2C0",
"W.	c #F3F2BF",
"X.	c #EFEDBC",
"Y.	c #E7E2B4",
"Z.	c #D8CEA5",
"`.	c #C6B494",
" +	c #B79F88",
".+	c #B59C8D",
"++	c #C0AEA2",
"@+	c #D0C5B9",
"#+	c #DDD7CB",
"$+	c #DACD9F",
"%+	c #F4F4C7",
"&+	c #F4F4CB",
"*+	c #F3F3CD",
"=+	c #F3F1CD",
"-+	c #F3EDCA",
";+	c #F3E7C5",
">+	c #F3E7C6",
",+	c #F3E8CC",
"'+	c #F3EAD2",
")+	c #F3F0D2",
"!+	c #F3F1CB",
"~+	c #F3F1C5",
"{+	c #F4F4C1",
"]+	c #F2F1BF",
"^+	c #EBE7B8",
"/+	c #DFD5AA",
"(+	c #D0BF99",
"_+	c #C3AB8D",
":+	c #BEA48D",
"<+	c #C2AB9B",
"[+	c #C9B9AC",
"}+	c #D1C6BA",
"|+	c #D7CFC4",
"1+	c #DCD7CB",
"2+	c #E2DFD3",
"3+	c #EBE6B5",
"4+	c #F3F2C4",
"5+	c #F4F4D1",
"6+	c #F3F3D5",
"7+	c #F3F1D5",
"8+	c #F3EED1",
"9+	c #F3EACB",
"0+	c #F3E6C5",
"a+	c #F3E6C8",
"b+	c #F3ECCE",
"c+	c #F3EECB",
"d+	c #F3EFC7",
"e+	c #F3F1C3",
"f+	c #E6DDB0",
"g+	c #DCCCA3",
"h+	c #D2BB98",
"i+	c #CAB093",
"j+	c #C5AC95",
"k+	c #C2AC9B",
"l+	c #C2B0A3",
"m+	c #C5B7AD",
"n+	c #CFC5BB",
"o+	c #E8E6D9",
"p+	c #F0F1E4",
"q+	c #F2F0C1",
"r+	c #F3F2C7",
"s+	c #F3F3CF",
"t+	c #F3F4D7",
"u+	c #F3F3DC",
"v+	c #F3F1DC",
"w+	c #F3EED7",
"x+	c #F3EBD0",
"y+	c #F3E8C9",
"z+	c #F3E9C7",
"A+	c #F3ECC6",
"B+	c #F3EEC3",
"C+	c #F3F3C0",
"D+	c #F0ECBB",
"E+	c #ECE2B4",
"F+	c #E6D7AC",
"G+	c #DFCAA2",
"H+	c #D6BC9A",
"I+	c #C8AD90",
"J+	c #BB9E8A",
"K+	c #B2988A",
"L+	c #B5A096",
"M+	c #C4B7AD",
"N+	c #D7D0C5",
"O+	c #E7E4D8",
"P+	c #F0F0E4",
"Q+	c #F5F7EA",
"R+	c #E9E5D8",
"S+	c #BC9D7D",
"T+	c #D9CCA0",
"U+	c #F3F3CC",
"V+	c #F3F3D4",
"W+	c #F3F4DC",
"X+	c #F3F3E0",
"Y+	c #F3F2E1",
"Z+	c #F3EFDC",
"`+	c #F3ECD5",
" @	c #F3EACE",
".@	c #F3E9C3",
"+@	c #F3ECC2",
"@@	c #F3F0C0",
"#@	c #F1EDBC",
"$@	c #EFE6B7",
"%@	c #ECDDB0",
"&@	c #E6D1A8",
"*@	c #DCC29D",
"=@	c #CAAD8D",
"-@	c #B7957E",
";@	c #A98779",
">@	c #AB9088",
",@	c #BEAFA6",
"'@	c #E6E4D8",
")@	c #F6F8EB",
"!@	c #F2F2E5",
"~@	c #E9E6D9",
"{@	c #DBD0C1",
"]@	c #C8B3A2",
"^@	c #B99880",
"/@	c #B99775",
"(@	c #C7AF86",
"_@	c #EAE4B5",
":@	c #F3F4DA",
"<@	c #F3F4E0",
"[@	c #F3F4E3",
"}@	c #F3F3E4",
"|@	c #F3F1E0",
"1@	c #F3EEDB",
"2@	c #F3EBC1",
"3@	c #F3EDC0",
"4@	c #F3EFC0",
"5@	c #F2EDBC",
"6@	c #F1E7B8",
"7@	c #EEDFB2",
"8@	c #E8D4A9",
"9@	c #DEC49E",
"0@	c #CAAC8C",
"a@	c #B49178",
"b@	c #A47F70",
"c@	c #A78A81",
"d@	c #BCACA4",
"e@	c #D4CDC3",
"f@	c #E7E5D9",
"g@	c #F1F2E5",
"h@	c #F5F5CC",
"i@	c #F4F5D2",
"j@	c #F3F4E5",
"k@	c #F3F3E5",
"l@	c #F3F2E3",
"m@	c #F3F0BF",
"n@	c #E9D4A9",
"o@	c #CBAC8C",
"p@	c #D4CDC2",
"q@	c #EFEEE1",
"r@	c #DACFBF",
"s@	c #CAB5A2",
"t@	c #BD9E85",
"u@	c #BD9E7B",
"v@	c #CAB48A",
"w@	c #DBCFA1",
"x@	c #EAE4B6",
"y@	c #F4F4CE",
"z@	c #F4F4D6",
"A@	c #F3F4E6",
"B@	c #F3F0CD",
"C@	c #F0E7B8",
"D@	c #EDDEB1",
"E@	c #E8D3A9",
"F@	c #CCAE8D",
"G@	c #B8967C",
"H@	c #A98675",
"I@	c #AB8F84",
"J@	c #BDADA3",
"K@	c #D3CBC0",
"L@	c #E4E1D5",
"M@	c #EEEEE1",
"N@	c #EBE9DB",
"O@	c #E8E4D6",
"P@	c #E2DBCC",
"Q@	c #D8CBB9",
"R@	c #CCB8A2",
"S@	c #C4AA8C",
"T@	c #C5AC87",
"U@	c #D0BE93",
"V@	c #DED4A6",
"W@	c #EBE6B7",
"X@	c #F4F3CE",
"Y@	c #F4F3D6",
"Z@	c #F3F2DC",
"`@	c #F3F2CD",
" #	c #DFC69F",
".#	c #D0B391",
"+#	c #BF9F83",
"@#	c #B3927D",
"##	c #B39788",
"$#	c #BFADA1",
"%#	c #DDD8CB",
"&#	c #E9E8DB",
"*#	c #E6E0D2",
"=#	c #E1D9CA",
"-#	c #D9CDBA",
";#	c #D0BEA2",
">#	c #CEBB98",
",#	c #D2C097",
"'#	c #E4DDAD",
")#	c #EDE9BA",
"!#	c #F2F0C3",
"~#	c #F4F1CB",
"{#	c #F4F1D2",
"]#	c #F3EFD7",
"^#	c #F3F0E0",
"/#	c #F3F3D7",
"(#	c #F3F3D0",
"_#	c #F3F3CA",
":#	c #F3F3C1",
"<#	c #F2EDBD",
"[#	c #E9D4AA",
"}#	c #E1C9A1",
"|#	c #D7BB97",
"1#	c #CBAD8D",
"2#	c #C1A489",
"3#	c #BFA48E",
"4#	c #C2AD9C",
"5#	c #CABAAC",
"6#	c #D6CEC3",
"7#	c #DCD6CB",
"8#	c #E2DED3",
"9#	c #E0D8C9",
"0#	c #D6C9B9",
"a#	c #CFBEAC",
"b#	c #CEBBA4",
"c#	c #D0BEA1",
"d#	c #D4C4A1",
"e#	c #D9CCA4",
"f#	c #DFD5A8",
"g#	c #E5DEAE",
"h#	c #F2F0C2",
"i#	c #F3F0C7",
"j#	c #F3ECD0",
"k#	c #F3F3C6",
"l#	c #F3F2C3",
"m#	c #E4CCA4",
"n#	c #DEC49D",
"o#	c #D7BC98",
"p#	c #D1B594",
"q#	c #CBB194",
"r#	c #C6AD96",
"s#	c #C2AD9B",
"t#	c #C1AFA2",
"u#	c #C5B6AC",
"v#	c #CEC4BA",
"w#	c #DBD5CA",
"x#	c #DCD2C4",
"y#	c #CEBCAC",
"z#	c #C3AA95",
"A#	c #EEEBB9",
"B#	c #F3ECC5",
"C#	c #F3EAC8",
"D#	c #F1ECBC",
"E#	c #EFE5B6",
"F#	c #E9D5AA",
"G#	c #E7CEA6",
"H#	c #E5CBA3",
"I#	c #E2C7A0",
"J#	c #DDC39E",
"K#	c #D5BB99",
"L#	c #C9AE91",
"M#	c #BB9F8A",
"N#	c #C4B6AD",
"O#	c #E8E5D7",
"P#	c #DAD0C2",
"Q#	c #C8B4A4",
"R#	c #BA9D87",
"S#	c #BA9C7E",
"T#	c #C7B18B",
"U#	c #D8CCA1",
"V#	c #E7E2B3",
"W#	c #F3EAC4",
"X#	c #F2EFBE",
"Y#	c #F0E9B9",
"Z#	c #EEE2B4",
"`#	c #ECDBAF",
" $	c #E8D0A7",
".$	c #E8CFA6",
"+$	c #E8CEA5",
"@$	c #E4CBA3",
"#$	c #DBC19C",
"$$	c #CBAE8E",
"%$	c #B7977F",
"&$	c #A98879",
"*$	c #AB9188",
"=$	c #E8E4D7",
"-$	c #D8CEC1",
";$	c #C4B0A2",
">$	c #B49582",
",$	c #B49477",
"'$	c #C3AE88",
")$	c #F5F4C2",
"!$	c #F3EDCB",
"~$	c #F3F0D1",
"{$	c #F3F2D5",
"]$	c #F2EEBD",
"^$	c #F1EBBB",
"/$	c #EFE7B8",
"($	c #EEE3B5",
"_$	c #ECDDB1",
":$	c #EBD8AC",
"<$	c #E9D3A9",
"[$	c #E9D0A7",
"}$	c #EAD0A7",
"|$	c #EAD1A7",
"1$	c #E7CDA5",
"2$	c #DDC39D",
"3$	c #CBAE8D",
"4$	c #B5937A",
"5$	c #A58172",
"6$	c #A88B82",
"7$	c #BCACA3",
"8$	c #D4CCC2",
"9$	c #E7E4D7",
"0$	c #D6CDC1",
"a$	c #C1AEA2",
"b$	c #AF9282",
"c$	c #AF9178",
"d$	c #C0AC88",
"e$	c #D6CBA1",
"f$	c #E8E4B5",
"g$	c #F3EFC6",
"h$	c #F3F1CA",
"i$	c #F1EBBA",
"j$	c #EFE5B7",
"k$	c #EDE0B3",
"l$	c #ECDCAF",
"m$	c #EBD7AC",
"n$	c #E9D1A8",
"o$	c #E7CEA5",
"p$	c #A58171",
"q$	c #D5CCC1",
"r$	c #BFADA3",
"s$	c #AC9184",
"t$	c #AC907A",
"u$	c #BEAA8A",
"v$	c #D4CAA1",
"w$	c #E7E3B4",
"x$	c #F1EFBE",
"y$	c #F0E8B8",
"z$	c #EDE1B3",
"A$	c #EBDAAE",
"B$	c #EAD5AB",
"C$	c #E9D2A8",
"D$	c #E9D1A7",
"E$	c #E6CDA4",
"F$	c #DDC29D",
"G$	c #B6947B",
"H$	c #A68374",
"I$	c #A98C84",
"J$	c #BDADA4",
"K$	c #BDACA4",
"L$	c #AA8F85",
"M$	c #AA8E7B",
"N$	c #BCA98A",
"O$	c #D3C9A1",
"P$	c #F4F3C1",
"Q$	c #ECDEB1",
"R$	c #EAD6AB",
"S$	c #B6947C",
"T$	c #A98D84",
"U$	c #A98F85",
"V$	c #A98E7B",
"W$	c #BBA98A",
"X$	c #E6E2B4",
"Y$	c #EAD5AA",
"Z$	c #EAD4AA",
"`$	c #E8CEA6",
" %	c #D4CCC1",
".%	c #A98E85",
"+%	c #A98D7B",
"@%	c #EEE3B4",
"#%	c #D4CBC1",
"$%	c #BCABA3",
"%%	c #A88D83",
"&%	c #A88C79",
"*%	c #BBA889",
"=%	c #E7E3B5",
"-%	c #F5F5C2",
";%	c #EAD7AC",
">%	c #EAD1A8",
",%	c #BBA989",
"'%	c #E8D1A7",
")%	c #BEAEA5",
"!%	c #AC9389",
"~%	c #AB927F",
"{%	c #BDAA8D",
"]%	c #D3C8A1",
"^%	c #E5E0B3",
"/%	c #D6CFC5",
"(%	c #B6A197",
"_%	c #B5A08F",
":%	c #C0AF95",
"<%	c #D0C5A2",
"[%	c #DED7AE",
"}%	c #ECEABA",
"|%	c #EFEEBD",
"1%	c #F1F0BF",
"2%	c #E8D0A6",
"3%	c #E2C8A1",
"4%	c #C9AD91",
"5%	c #E8E5D9",
"6%	c #C6B8AE",
"7%	c #C3B5A6",
"8%	c #C5B7A2",
"9%	c #CABEA1",
"0%	c #D1C7A3",
"a%	c #D8D0A7",
"b%	c #E1DBAE",
"c%	c #E9E5B6",
"d%	c #F4F2C0",
"e%	c #F3EFBE",
"f%	c #F2ECBC",
"g%	c #F1E8B9",
"h%	c #EFE4B5",
"i%	c #ECD8AD",
"j%	c #EAD4A9",
"k%	c #E9D0A6",
"l%	c #DFC49D",
"m%	c #D7BC97",
"n%	c #D0B492",
"o%	c #CAAF92",
"p%	c #D2C9BB",
"q%	c #CBC0AF",
"r%	c #C2B397",
"s%	c #C7B997",
"t%	c #F2ECBB",
"u%	c #EEE1B4",
"v%	c #EDDDB0",
"w%	c #EAD2A8",
"x%	c #C0A287",
"y%	c #BDA28C",
"z%	c #C9BAAC",
"A%	c #DDD8CC",
"B%	c #D1C7BB",
"C%	c #C2B3A5",
"D%	c #B7A392",
"E%	c #B9A68C",
"F%	c #EFEBBB",
"G%	c #EDE5B6",
"H%	c #EBDEB1",
"I%	c #E9D7AC",
"J%	c #E7D0A7",
"K%	c #E6CEA6",
"L%	c #E6CDA5",
"M%	c #E6CCA4",
"N%	c #B59682",
"O%	c #B59B8C",
"P%	c #C1AFA3",
"Q%	c #B8A599",
"R%	c #E6E1B4",
"S%	c #E5DEB1",
"T%	c #E3D7AC",
"U%	c #E1D0A7",
"V%	c #DFC9A2",
"W%	c #DDC49E",
"X%	c #B7A297",
"Y%	c #E5E2D5",
"Z%	c #CEC4BB",
"`%	c #D3CAA2",
" &	c #D2C59E",
".&	c #D0BF9A",
"+&	c #CEB895",
"@&	c #CCB290",
"#&	c #CBAD8C",
"$&	c #DCD7CC",
"%&	c #E3DFD4",
"&&	c #BCAA8B",
"*&	c #BCA98B",
"=&	c #BBA688",
"-&	c #B9A185",
";&	c #B89C81",
">&	c #B7977E",
",&	c #B6937B",
"'&	c #E3E0D4",
")&	c #A98C7A",
"!&	c #A88A78",
"~&	c #A78777",
"{&	c #A78575",
"]&	c #A98E84",
"                                                                                                                                ",
"                                                                                                                                ",
"                                                                                                                                ",
"                                                                                                                                ",
"                                                    . . . . . . . . . . . . . .                                                 ",
"                                                  + + + + + + + + + + + + + + + +                                               ",
"                                                  @ # $ $ $ $ $ $ $ $ $ $ $ $ # @                                               ",
"                                                % & * = - - ; ; ; ; ; ; - - = * & %                                             ",
"                                            > , ' ) ! ~ { { ] ] ] ] ] ] { { ~ ! ) ' , >                                         ",
"                                          > ^ / ( _ : < [ [ } } } } } } [ [ < : _ ( / ^ >                                       ",
"                                          , | 1 2 3 4 5 6 7 8 9 9 9 9 8 7 7 5 4 3 2 1 | ,                                       ",
"                                        0 a b c d e f g h i j k j h h h i i l f e d c b a 0                                     ",
"                                    > , a ) m n o p q r s s s s s t t t s s t q p o n m ) ' , u                                 ",
"                                  > ^ | b m v w x y z A B B C D E E E E F B A z y x w G m b H I >                               ",
"                                  , | 1 c n w J K L E M N O P Q R S T U V W X E L K Y Z `  .a ..+.                              ",
"                                0 a b c @.#.$.K t %.&.*.=.-.;.>.,.'.).!.~.{.].^.%.t K /.(._.:.<.[.}.                            ",
"                            > , a ) m n #.p y L %.|.1.2.3.4.5.6.7.8.9.0.a.b.c.d.|.%.L e.f.g.h.i.j.k.l.>                         ",
"                          > ^ | b m v w $.y m.E ^.d.n.o.p.q.r.s.t.u.v.w.x.y.z.n.1.&.E A.B.C.D.E.F.G.H.I >                       ",
"                          , / 1 c n w J K L E d.].I.J.K.L.r.M.N.O.P.Q.R.S.T.z.U.V.W.X.Y.Z.`. +.+++@+#+..l.                      ",
"                        % ' ( 2 d o x K $+%.&.].%+&+*+=+-+s.;+>+,+'+P.u.)+!+~+U.{+{+]+^+/+(+_+:+<+[+}+|+1+2+                    ",
"                    + @ & ) _ 3 e p y L %.3+d.4+&+5+6+7+8+9+>+0+a+,+O.b+c+d+e+U.{+{+2.^.f+g+h+i+j+k+l+m+n+k.o+p+                ",
"                  . + # * ! : 4 f q z E &.d.q+r+s+t+u+v+w+x+y+0+0+>+N.z+A+B+o.V.C+C+]+D+E+F+G+H+I+J+K+L+M+N+O+P+.               ",
"                  Q++ R+= ~ < S+l T+A X ].I.r+U+V+W+X+Y+Z+`+ @y+>+;+M..@+@p.@@V.C+C+*.#@$@%@&@*@=@-@;@>@,@G.'@p+Q+              ",
"                  )@!@~@{@]@^@/@(@$+_@q+{.b.s+V+:@<@[@}@|@1@`+x+9+s.r.2@3@4@2.V.C+C+*.5@6@7@8@9@0@a@b@c@d@e@f@g@)@              ",
"                  )@!@# {@]@^@/@(@$+B V h@i@t+W+<@[@j@k@l@|@Z+w+8+-+L.p.4@m@2.V.C+C+*.5@6@7@n@9@o@a@b@c@d@p@f@g@)@              ",
"                  u q@H r@s@t@u@v@w@x@U y@z@u+X+[@j@A@A@k@}@Y+v+7+B@K.o.2.*.V.V.C+C+*.5@C@D@E@9@F@G@H@I@J@K@L@M@>               ",
"                  N@O@P@Q@R@S@T@U@V@W@U X@Y@Z@Y+}@k@A@A@j@[@X+u+6+`@z.U.W.W.V.V.C+C+*.#@C@D@E@ #.#+#@###$#@+%#..&#              ",
"                *#=#( -#d ;#>#,#s '#)#!#~#{#]#Z+^#l@k@j@[@<@W+/#(#_#4+U.V.W.V.V.:#:#2.<#C@D@[#}#|#1#2#3#4#5#}+6#7#8#            ",
"            + @ 9#0#a#b#c#d#e#f#g#3+X.h#i#c+j#`+1@^#}@[@<@:@V+s+_#k#l#U.V.V.V.V.:#:#2.<#$@D@[#m#n#o#p#q#r#s#t#u#v#w#f@p+        ",
"          . + # x#y#z#4 f q z _@A#1.N o.B+B#C# @`+Z+Y+X+W+V+U+r+4+].U.V.V.V.V.V.V.V.N D#E#%@F#G#H#I#J#K#L#M#K+L+N#N+O+P+.       ",
"          . + O#P#Q#R#S#T#U#V#M V.C+V.@@p.2@W#C#j#]#Z@u+/#s+r+].V.V.V.V.V.V.V.*.*.X##@Y#Z#`#[# $.$+$@$#$$$%$&$*$,@p@'@P+.       ",
"          . + =$-$;$>$,$'$U#E N )$)$V.2.4@3@2@B#!$~${$6+(#_#4+V.W.W.V.V.V.V.V.N ]$^$/$($_$:$<$[$}$|$1$2$3$4$5$6$7$8$'@P+.       ",
"          . p+9$0$a$b$c$d$e$f$N )$)$V.2.@@4@p.B+g$h$`@`@_#z.].V.W.W.V.V.V.V.2.X#i$j$k$l$m$[#n$[$|$|$o$2$3$4$p$6$7$8$'@P+.       ",
"          . P+O+q$r$s$t$u$v$w$x${+{+V.V.2.2.@@o.e+~+z.z.4+l#U.V.V.V.V.V.V.V.*.]$y$z$A$B$C$D$ $.$[$[$E$F$3$G$H$I$J$8$'@P+.       ",
"          . P+'@8$K$L$M$N$O$Y.x$P${+V.V.V.V.V.V.U.U.U.U.U.U.V.V.V.V.V.V.C+C+*.#@$@Q$R$n$.$.$.$.$[$[$E$F$3$S$H$T$J$8$'@P+.       ",
"          . P+'@8$K$U$V$W$O$X$x$P${+V.V.V.V.V.V.V.V.W.W.V.V.V.V.V.V.V.V.:#:#2.#@$@%@Y$ $+$+$.$.$[$[$E$F$3$S$H$T$J$8$'@P+.       ",
"          . P+'@8$K$U$V$W$O$X$x$P${+V.V.V.V.V.V.V.W.W.W.V.V.V.V.V.V.V.V.:#:#2.#@$@%@Y$ $+$+$.$.$[$[$E$F$3$S$H$T$J$8$'@P+.       ",
"          . P+'@8$K$U$V$N$O$Y.x$P${+V.V.V.V.V.V.V.V.V.V.V.V.V.V.V.V.V.V.V.V.N D#E#%@Y$ $+$+$.$.$[$[$E$F$3$S$H$T$J$8$'@P+.       ",
"          . P+'@8$K$U$V$N$O$Y.x$P${+V.V.V.V.V.V.V.V.V.V.V.V.V.V.V.V.V.2.*.X##@Y#Z#`#Z$ $`$`$.$.$[$[$E$F$3$S$H$T$J$8$'@P+.       ",
"          . P+'@8$K$U$V$N$O$Y.x$P${+V.V.V.V.V.V.V.V.V.V.V.V.V.V.V.C+V.*.]$^$/$($_$:$<$ $.$.$.$.$[$[$E$F$3$S$H$T$J$8$'@P+.       ",
"          . P+'@8$K$U$V$N$O$Y.x$P${+V.V.V.V.V.V.V.V.V.V.V.V.V.V.C+C+V.X#^$$@k$l$:$[#n$.$.$.$.$.$[$[$E$F$3$S$H$T$J$8$'@P+.       ",
"          . P+'@8$K$U$V$N$O$Y.x$P${+V.V.V.V.V.V.V.V.V.V.V.V.V.V.V.V.N #@/$k$A$B$C$D$ $.$.$.$.$.$[$[$E$F$3$S$H$T$J$8$'@P+.       ",
"          . P+'@ %K$.%+%N$O$Y.x${+{+V.V.V.V.V.V.V.V.V.V.V.V.V.2.*.X##@Y#@%`#B$D$.$.$.$.$.$.$.$.$[$[$E$F$3$G$H$I$J$8$'@P+.       ",
"          . P+'@#%$%%%&%*%v$=%N -%)$C+V.V.V.V.V.V.V.V.V.V.C+V.*.]$^$/$@%%@;%C$.$+$`$.$.$.$.$.$.$|$>%o$2$3$4$p$6$7$8$'@P+.       ",
"          . P+'@#%$%%%&%,%v$=%N )$)$C+V.V.V.V.V.V.V.V.V.C+C+V.X#^$$@k$`#;%n@'%.$`$`$.$.$.$.$.$.$|$|$o$2$3$4$5$6$7$8$'@P+.       ",
"          . P+'@8$)%!%~%{%]%^%X.V.V.V.V.V.V.V.V.V.V.V.V.V.V.N #@/$k$A$B$C$'% $.$.$.$.$.$.$.$.$.$.$.$@$#$$$%$&$*$,@p@'@P+.       ",
"          . P+O+/%N#(%_%:%<%[%=%}%|%1%V.C+C+V.V.V.V.V.V.*.X##@Y#($l$B$n$2%.$.$.$.$.$.$.$.$.$.$1$H#3%2$K#4%M#K+L+M+N+O+P+.       ",
"            p+5%w#n+6%7%8%9%0%a%b%c%|%V.)$)${+{+{+{+P$d%e%f%g%h%D@i%j%D$k%k%[$[$[$[$[$[$|$|$.$H#l%m%n%o%j+s#l+m+n+k.o+p+        ",
"                8#7#|+p%q%8%r%s%O$b%}%V.)$-%{+{+{+{+P$m@t%C@u%v%i%Y$w%[$k%k%[$[$[$[$[$[$>%|$.$3%m%1#x%y%k+z%}+|+1+2+            ",
"                  l...A%B%C%D%E%s%a%=%X.N N x$x$x$x$d.F%G%H%I%E@J%K%L%E$M%M%E$E$E$E$E$E$o$o$@$2$n%x%N%O%P%@+#+..l.              ",
"                  > I ..6#m+Q%D%r%0%[%^%=%=%Y.Y.=%=%R%S%T%U%V%W%2$F$F$F$F$F$F$F$F$F$F$F$2$2$#$K#o%y%O%X%m+6#Y%I >               ",
"                    > l.k.Z%m+C%8%9%<%]%v$v$O$O$`%`%]% &.&+&@&3$#&1#1#3$3$3$3$3$3$3$3$3$3$3$$$4%j+k+P%m+j.$&l.>                 ",
"                        %&k.6#B%q%8%:%{%,%*%N$N$&&*&N$=&-&;&>&S$,&G$S$S$S$S$S$S$S$S$S$G$4$4$%$M#s#z%@+6#$&'&                    ",
"                          l...A%p%7%_%~%&%&%+%V$V$V$+%)&!&~&{&H$H$H$H$H$H$H$H$H$H$H$H$H$p$5$&$K+l+}+#+Y%l.                      ",
"                          > I ..|+6%(%!%%%%%.%U$U$U$U$U$.%]&T$T$T$T$T$T$T$T$T$T$T$T$T$I$6$6$*$L+m+|+..I >                       ",
"                            > l.7#n+N#)%$%$%K$K$K$K$K$K$K$J$J$J$J$J$J$J$J$J$J$J$J$J$J$J$7$7$,@M+n+1+l.>                         ",
"                                8#w#/%8$#%#% %8$8$8$8$8$8$8$8$8$8$8$8$8$8$8$8$8$8$8$8$8$8$8$p@N+k.2+                            ",
"                                  5%O+'@'@'@'@'@'@'@'@'@'@'@'@'@'@'@'@'@'@'@'@'@'@'@'@'@'@'@'@O+o+                              ",
"                                  p+P+P+P+P+P+P+P+P+P+P+P+P+P+P+P+P+P+P+P+P+P+P+P+P+P+P+P+P+P+P+p+                              ",
"                                    . . . . . . . . . . . . . . . . . . . . . . . . . . . . . .                                 ",
"                                                                                                                                ",
"                                                                                                                                ",
"                                                                                                                                ",
"                                                                                                                                "};
