/* XPM */
static char *ad3a742b56474825e74c1c378e9ef12dLaCmopEQ0Bjl9YQc[] = {
/* columns rows colors chars-per-pixel */
"76 95 17 1 ",
"  c black",
". c None",
"X c #90625D",
"o c #DCB98A",
"O c #78A158",
"+ c #C0D470",
"@ c #A4C263",
"# c #8DB15D",
"$ c #C49A6C",
"% c #67835C",
"& c #AA7959",
"* c #E8CFA6",
"= c #F3E5C2",
"- c #B68962",
"; c #754C60",
": c #6B4B5B",
"> c white",
/* pixels */
"                                XXXXXXXXXXXX                                ",
"                          XXXXXXooooooooooooXXXXXX                          ",
"                          XXXXXXooooooooooooXXXXXX                          ",
"                    XXXXXXooooooooooooooooooooooooXXXXXX                    ",
"                    XXXXXXooooooooooooooooooooooooXXXXXX                    ",
"              XXXXXXooooooooooooOOOOOOOOOOOOooooooooooooXXXXXX              ",
"              XXXXXXooooooooooooOOOOOOOOOOOOooooooooooooXXXXXX              ",
"        XXXXXXooooooooooooOOOOOO++@@@@@@@@++OOOOOOooooooooooooXXXXXX        ",
"        XXXXXXooooooooooooOOOOOO++@@@@@@@@++OOOOOOooooooooooooXXXXXX        ",
"  XXXXXXooooooooooooOOOOOO@@##OO++@@@@@@@@++OO##@@OOOOOOooooooooooooXXXXXX  ",
"  XXXXXXooooooooooooOOOOOO@@##OO++@@@@@@@@++OO##@@OOOOOOooooooooooooXXXXXX  ",
"XXooooooooooooOOOOOOOO++++@@##OO@@########@@OO##@@++++OOOOOOOOooooooooooooXX",
"XXooooooooooooOOOOOOOO++++@@##OO@@########@@OO##@@++++OOOOOOOOooooooooooooXX",
"XXooooooOOOOOO@@@@##OO++++@@##OO++@@@@@@@@++OO##@@++++OO##@@@@OOOOOOooooooXX",
"XXooooooOOOOOO@@@@##OO++++@@##OO++@@@@@@@@++OO##@@++++OO##@@@@OOOOOOooooooXX",
"XX$$OOOO##OO++++@@##OO@@@@@@##OO++@@@@@@@@++OO##@@@@@@OO##@@++++OO##OOOO$$XX",
"XX$$OOOO##OO++++@@##OO@@@@@@##OO++@@@@@@@@++OO##@@@@@@OO##@@++++OO##OOOO$$XX",
"  XX%%@@##OO++++@@##OO++++@@##OO@@########@@OO##@@++++OO##@@++++OO##@@%%XX  ",
"  XX%%@@##OO++++@@##OO++++@@##OO@@########@@OO##@@++++OO##@@++++OO##@@%%XX  ",
"    %%@@##OO@@@@@@##OO++++@@##OO++@@@@@@@@++OO##@@++++OO##@@@@@@OO##@@%%    ",
"    %%@@##OO@@@@@@##OO++++@@##OO++@@@@@@@@++OO##@@++++OO##@@@@@@OO##@@%%    ",
"    %%@@##OO++++@@##OO@@@@@@##OO++@@@@@@@@++OO##@@@@@@OO##@@++++OO##@@%%    ",
"    %%@@##OO++++@@##OO@@@@@@##OO++@@@@@@@@++OO##@@@@@@OO##@@++++OO##@@%%    ",
"    %%@@##OO++++@@##OO++++@@##OO&&&&&&&&&&&&OO##@@++++OO##@@++++OO##@@%%    ",
"    %%@@##OO++++@@##OO++++@@##OO&&&&&&&&&&&&OO##@@++++OO##@@++++OO##@@%%    ",
"    %%@@##OO@@@@@@##OO++++&&&&&&************&&&&&&++++OO##@@@@@@OO##@@%%    ",
"    %%@@##OO@@@@@@##OO++++&&&&&&************&&&&&&++++OO##@@@@@@OO##@@%%    ",
"    %%@@##OO++++@@##&&&&&&******============******&&&&&&##@@++++OO##@@%%    ",
"    %%@@##OO++++@@##&&&&&&******============******&&&&&&##@@++++OO##@@%%    ",
"    %%@@##OO++&&&&&&******======oooooooooooo======******&&&&&&++OO##@@%%    ",
"    %%@@##OO++&&&&&&******======oooooooooooo======******&&&&&&++OO##@@%%    ",
"    %%@@&&&&&&******======oooooooooooooooooooooooo======******&&&&&&@@%%    ",
"    %%@@&&&&&&******======oooooooooooooooooooooooo======******&&&&&&@@%%    ",
"  &&&&&&******======ooooooooooooXXXXXXXXXXXXoooooooooooo======******&&&&&&  ",
"  &&&&&&******======ooooooooooooXXXXXXXXXXXXoooooooooooo======******&&&&&&  ",
"&&******======ooooooooooooXXXXXXXXXXXXXXXXXXXXXXXXoooooooooooo======******&&",
"&&******======ooooooooooooXXXXXXXXXXXXXXXXXXXXXXXXoooooooooooo======******&&",
"&&======ooooooooooooXXXXXXXXXXXXXXXXXXXXXXXXXXXXXXXXXXXXoooooooooooo======&&",
"&&======ooooooooooooXXXXXXXXXXXXXXXXXXXXXXXXXXXXXXXXXXXXoooooooooooo======&&",
"XXooooooooooooXXXXXXXXXXXXXXXXXXXXXXXXXXXXXXXXXXXXXXXXXXXXXXXXooooooooooooXX",
"XXooooooooooooXXXXXXXXXXXXXXXXXXXXXXXXXXXXXXXXXXXXXXXXXXXXXXXXooooooooooooXX",
"XXooooooXXXXXX&&&&&&&&&&&&&&&&&&&&&&&&&&&&&&&&&&&&&&&&&&&&&&&&XXXXXXooooooXX",
"XXooooooXXXXXX&&&&&&&&&&&&&&&&&&&&&&&&&&&&&&&&&&&&&&&&&&&&&&&&XXXXXXooooooXX",
"  XXXXXX--$$$$$$$$$$$$$$$$$$$$$$$$$$$$$$$$$$$$$$$$$$$$$$$$$$$$$$$$--XXXXXX  ",
"  XXXXXX--$$$$$$$$$$$$$$$$$$$$$$$$$$$$$$$$$$$$$$$$$$$$$$$$$$$$$$$$--XXXXXX  ",
"      ;;$$$$$$$$$$$$$$$$$$$$$$$$$$$$$$$$$$$$$$$$$$$$$$$$$$$$$$$$$$$$::      ",
"      ;;$$$$$$$$$$$$$$$$$$$$$$$$$$$$$$$$$$$$$$$$$$$$$$$$$$$$$$$$$$$$::      ",
"      ;;&&&&&&&&&&&&&&&&&&&&&&&&&&&&&&&&&&&&&&&&&&&&&&&&&&&&&&&&&&&&;;      ",
"      ;;&&&&&&&&&&&&&&&&&&&&&&&&&&&&&&&&&&&&&&&&&&&&&&&&&&&&&&&&&&&&;;      ",
"      ;;$$$$$$$$$$$$$$$$$$$$$$$$$$$$$$$$$$$$$$$$$$$$$$$$$$$$$$$$$$$$;;      ",
"      ;;$$$$$$$$$$$$$$$$$$$$$$$$$$$$$$$$$$$$$$$$$$$$$$$$$$$$$$$$$$$$;;      ",
"      ;;$$$$$$$$$$$$$$$$$$$$$$$$$$$$$$$$$$$$$$$$$$$$$$$$$$$$$$$$$$$$;;      ",
"      ;;$$$$$$$$$$$$$$$$$$$$$$$$$$$$$$$$$$$$$$$$$$$$$$$$$$$$$$$$$$$$;;      ",
"      ;;$$$$$$;;;;;;$$$$$$$$$$$$$$$$$$$$$$$$$$$$$$$$$$$$;;;;;;$$$$$$;;      ",
"      ;;$$$$$$;;;;;;$$$$$$$$$$$$$$$$$$$$$$$$$$$$$$$$$$$$;;;;;;$$$$$$;;      ",
"      ;;&&&&;;XXXXXX;;&&&&&&&&&&;;;;;;;;;;;;&&&&&&&&&&;;XXXXXX;;&&&&;;      ",
"      ;;&&&&;;XXXXXX;;&&&&&&&&&&;;;;;;;;;;;;&&&&&&&&&&;;XXXXXX;;&&&&;;      ",
"      ;;$$$$;;XXXXXX;;$$$$$$$$;;XXXXXXXXXXXX;;$$$$$$$$;;XXXXXX;;$$$$;;      ",
"      ;;$$$$;;XXXXXX;;$$$$$$$$;;XXXXXXXXXXXX;;$$$$$$$$;;XXXXXX;;$$$$;;      ",
"      ;;$$$$;;XXXXXX;;$$$$$$;;XXXXXXXXXXXXXXXX;;$$$$$$;;XXXXXX;;$$$$;;      ",
"      ;;$$$$;;XXXXXX;;$$$$$$;;XXXXXXXXXXXXXXXX;;$$$$$$;;XXXXXX;;$$$$;;      ",
"      ;;$$$$;;$$$$$$;;$$$$$$;;XXXXXXXXXXXXXXXX;;$$$$$$;;$$$$$$;;$$$$;;      ",
"      ;;$$$$;;$$$$$$;;$$$$$$;;XXXXXXXXXXXXXXXX;;$$$$$$;;$$$$$$;;$$$$;;      ",
"      ;;&&&&&&oooooo&&&&&&&&;;XXXXXXXXXXXXXXXX;;&&&&&&&&oooooo&&&&&&;;      ",
"      ;;&&&&&&oooooo&&&&&&&&;;XXXXXXXXXXXXXXXX;;&&&&&&&&oooooo&&&&&&;;      ",
"      ;;$$$$$$$$$$$$$$$$$$$$;;XXXXXXXXXXXXXXXX;;$$$$$$$$$$$$$$$$$$$$;;      ",
"      ;;$$$$$$$$$$$$$$$$$$$$;;XXXXXXXXXXXXXXXX;;$$$$$$$$$$$$$$$$$$$$;;      ",
"      ;;$$$$$$$$$$$$$$$$$$$$;;XXXXXXXXXXXXXXXX;;$$$$$$$$$$$$$$$$$$$$;;      ",
"      ;;$$$$$$$$$$$$$$$$$$$$;;XXXXXXXXXXXXXXXX;;$$$$$$$$$$$$$$$$$$$$;;      ",
"      ;;$$$$$$$$$$$$$$$$$$$$;;XX&&&&&&&&&&&&XX;;$$$$$$$$$$$$$$$$$$$$;;      ",
"      ;;$$$$$$$$$$$$$$$$$$$$;;XX&&&&&&&&&&&&XX;;$$$$$$$$$$$$$$$$$$$$;;      ",
"        ;;;;;;;;;;;;;;;;;;;;;;&&$$$$$$$$$$$$&&;;;;;;;;;;;;;;;;;;;;;;        ",
"        ;;;;;;;;;;;;;;;;;;;;;;&&$$$$$$$$$$$$&&;;;;;;;;;;;;;;;;;;;;;;        ",
"        ....;;----;;..........XX$$--------$$XX..........;;----;;....        ",
"        ....;;----;;..........XX$$--------$$XX..........;;----;;....        ",
"        ....;;$$$$;;..........XX$$$$$$$$$$$$XX..........;;$$$$;;....        ",
"        ....;;$$$$;;..........XX$$$$$$$$$$$$XX..........;;$$$$;;....        ",
"        ....;;$$$$;;..........XX$$--------$$XX..........;;$$$$;;....        ",
"        ....;;$$$$;;..........XX$$--------$$XX..........;;$$$$;;....        ",
"        ....;;$$$$;;..........XX$$$$$$$$$$$$XX..........;;$$$$;;....        ",
"        ....;;$$$$;;..........XX$$$$$$$$$$$$XX..........;;$$$$;;....        ",
"        ....;;$$$$;;..........XX$$--------$$XX..........;;$$$$;;....        ",
"        ....;;$$$$;;..........XX$$--------$$XX..........;;$$$$;;....        ",
"          ..;;$$$$;;..........XX$$$$$$$$$$$$XX..........;;$$$$;;..          ",
"          ..;;$$$$;;..........XX$$$$$$$$$$$$XX..........;;$$$$;;..          ",
"            ..;;;;............XX$$--------$$XX............;;;;..            ",
"            ..;;;;............XX$$--------$$XX............;;;;..            ",
"                            ..XX$$$$$$$$$$$$XX..                            ",
"                            ..XX$$$$$$$$$$$$XX..                            ",
"                            ..XX$$--------$$XX..                            ",
"                            ..XX$$--------$$XX..                            ",
"                            ..XX$$$$$$$$$$$$XX..                            ",
"                            ..XX$$$$$$$$$$$$XX..                            ",
"                              ..XXXXXXXXXXXX..                              ",
"                              ..XXXXXXXXXXXX..                              "
};
