/* XPM */
static char *_4f502c983c74ce8bc3566e957a92a7d9ZnexjA8i8VeVCBT[] = {
/* columns rows colors chars-per-pixel */
"49 49 200 2 ",
"   c #6E8F48",
".  c #779E45",
"X  c #75924E",
"o  c #748F5A",
"O  c #7D8F5D",
"+  c #7C9653",
"@  c #7C9B53",
"#  c #76935A",
"$  c #7D965C",
"%  c #7E995D",
"&  c #769552",
"*  c #7CA246",
"=  c #7CA34A",
"-  c #718A60",
";  c #7C8D60",
":  c #7C9464",
">  c #7E9A63",
",  c #7D8D73",
"<  c #819943",
"1  c #859D4D",
"2  c #809751",
"3  c #829B55",
"4  c #899F54",
"5  c #82955C",
"6  c #839B5B",
"7  c #80A546",
"8  c #81A74B",
"9  c #84AA4E",
"0  c #88AD4E",
"q  c #89A153",
"w  c #83AA51",
"e  c #88AF56",
"r  c #84A25B",
"t  c #8AA15B",
"y  c #85A454",
"u  c #90A85A",
"i  c #9BB750",
"p  c #97BA56",
"a  c #9CBC55",
"s  c #95B75E",
"d  c #95BC5A",
"f  c #9BBD5C",
"g  c #A1BF4F",
"h  c #A1BD5A",
"j  c #829463",
"k  c #839C63",
"l  c #8B9C66",
"z  c #83956B",
"x  c #839B6C",
"c  c #8A9A6C",
"v  c #849672",
"b  c #859A72",
"n  c #849579",
"m  c #899C7E",
"M  c #899B73",
"N  c #85A265",
"B  c #89A260",
"V  c #8AA269",
"C  c #89AA63",
"Z  c #9CB366",
"A  c #96BC64",
"S  c #9BBD64",
"D  c #9DB66A",
"F  c #97BD68",
"G  c #9CBE6B",
"H  c #89A172",
"J  c #9CB774",
"K  c #9FBE75",
"L  c #A3BC64",
"P  c #A2BD6B",
"I  c #A4BD73",
"U  c #A6BD79",
"Y  c #97C15B",
"T  c #9BC35E",
"R  c #A5C34F",
"E  c #A4C354",
"W  c #AAC755",
"Q  c #ACCA54",
"!  c #A3C25C",
"~  c #AAC45C",
"^  c #ABC95C",
"/  c #B4C157",
"(  c #B0CC5E",
")  c #BBC85E",
"_  c #B4D15D",
"`  c #B4D85E",
"'  c #BAD35D",
"]  c #9CC363",
"[  c #9FC862",
"{  c #9DC46C",
"}  c #9FC273",
"|  c #A3C462",
" . c #AAC563",
".. c #A4CA65",
"X. c #ACCA63",
"o. c #A3C56A",
"O. c #ACC369",
"+. c #A3CA6B",
"@. c #AACA6A",
"#. c #B3C267",
"$. c #B3CB64",
"%. c #BDCD64",
"&. c #B2C66B",
"*. c #B3CC6E",
"=. c #BDCC6C",
"-. c #B9C563",
";. c #A6D06A",
":. c #ADD06C",
">. c #B5D263",
",. c #BCD465",
"<. c #BCD964",
"1. c #B6D36C",
"2. c #BDD46B",
"3. c #B7D96B",
"4. c #BDD96B",
"5. c #A4C372",
"6. c #AAC572",
"7. c #A5CA70",
"8. c #AACD74",
"9. c #A4C379",
"0. c #ACC57B",
"q. c #AAC979",
"w. c #B5CC72",
"e. c #BDCD72",
"r. c #B0CD7B",
"t. c #BDCF7B",
"y. c #ADD076",
"u. c #B5D573",
"i. c #BCD573",
"p. c #B6D975",
"a. c #BDD972",
"s. c #B3D57D",
"d. c #BED47A",
"f. c #B7D87F",
"g. c #B9DC78",
"h. c #C0CF66",
"j. c #C2CF6C",
"k. c #C1D167",
"l. c #C1D967",
"z. c #C3D46B",
"x. c #C9D76D",
"c. c #C2DA6C",
"v. c #C0CF73",
"b. c #C1D571",
"n. c #C8D572",
"m. c #C2DA73",
"M. c #C9D975",
"N. c #C2D47B",
"B. c #C8D77C",
"V. c #C2D97D",
"C. c #C9D87C",
"Z. c #C3E06C",
"A. c #C8E275",
"S. c #C1E079",
"D. c #CDE47C",
"F. c #A7C184",
"G. c #A9C784",
"H. c #A8CA80",
"J. c #AFD282",
"K. c #BADB82",
"L. c #C3D780",
"P. c #C3DA80",
"I. c #CCDB80",
"U. c #F4FFDA",
"Y. c #ECF7E6",
"T. c #EFFEE3",
"R. c #EEFFEB",
"E. c #F4FFE4",
"W. c #F9FFE4",
"Q. c #F5FFEC",
"!. c #FAFFED",
"~. c #FEEEFF",
"^. c #EDF2F6",
"/. c #EDF8F4",
"(. c #F6F7F1",
"). c #FBF5F7",
"_. c #F5FFF3",
"`. c #FBFFF2",
"'. c #F3F7FF",
"]. c #F9F6FF",
"[. c #FFF7FF",
"{. c #FFF4FF",
"}. c #FEF5FE",
"|. c #F0FCF8",
" X c #F7FFF8",
".X c #F7FFFF",
"XX c #F5FEFE",
"oX c #F6FEFC",
"OX c #F9FFF9",
"+X c #FEFFF9",
"@X c #FFF9FF",
"#X c #FEFBFF",
"$X c #F8FFFF",
"%X c #F9FFFF",
"&X c #FBFFFF",
"*X c #FFFCFF",
"=X c #FFFDFF",
"-X c #FEFFFF",
";X c white",
":X c #FEFEFE",
/* pixels */
"{.{.@X*X*X^.%X'.%X%X+X`.`.OX%XoX*X*X@X*X].*X*X].*X*X*X*X*X*X*X@XoX%X_._.`.OX%X%X%XoX%X*X).@X{.{.*X",
"{.{.).`.+XOXoX%XoX`.Q.Q.W.!.`.OX`.Q.!.`.`.`.`.`.`.Q.`.`.`.!.Q.`. X_.!.E.Q.Q.OX%XoX|.OXOX+X*X{.{.*X",
"@X*X+X!.T.Q.E.Q.n v j l 5 j ; z % k V k $ # k % % % V 6 % k % k z z V k l j z n R.Q.Q.T.!.`.@X@X*X",
"@X(.!.W.U.x k # % 6 q L L 6.I 0.+.{ S = . w { { +.{ { = = S { +.9.I 6.S S q 6 % > : k U.E.!.+X*X*X",
"*XOXQ.U.$ + H.9.5.P h ^ ~ ~ f f [ d ..[ ..d T T Y Y ..T [ @.T Y o.f ! E ^ ! o.5.9.r   + U.Q.`.*X*X",
"oXOXE.o C G { S o.! E R W W  . .u. ...T T | ..| p.| p ! ..| @.g.a.1.^ W E E h o.S F J.+ k E._.%X*X",
"%X|.E.: 9.} s 8.|  .>.W _ ( a.i.i.d.i.w.&.d.w.L d.i.O.d.d.&.d.V.i.1.~ _ E ^ ! @.7.A o.+ > Q.|.%X*X",
"oXoXQ.> @ A y.f | *.D.%.2.$.d.i.N.e.&.N.e.B.N.N.e.I.=.N.e.&.B.e.i.d.*.A.$.2.O.u.S 8.A @ k E.oX%X*X",
"%X/.m % y S | O.d.i.2.z.b.b.d.d.n.n.n.n.n.n.n.n.=.j.j.j.z.n.n.n.d.d.b.2.z.2.i.d.d.o.s q.% n %XoX*X",
"%X_.z 6 S @. .*.b.b.b.n.b.N.N.N.z.z.z.z.z.z.z.z.k.k.k.z.x.x.z.z.N.d.i.z.b.n.N.i.i.i.O.L 6 z OX%X*X",
"OX!.O q ! E E ~ b.b.b.n.z.b.N.N.2.c.c.c.c.c.c.c.c.c.c.c.c.c.c.c.N.e.=.j.z.b.b.=.m.,.E ! P j Q.+X*X",
"_.Q.5 S ^ W >.c.z.b.n.x.k.2.2.b.a.a.2.2.2.a.a.a.a.a.a.a.a.a.2.2.b.2.%.k.z.z.=.$.m.>.R ^ O.l W.+X*X",
"_.Q.6 6.E R c.2.2.b.b.z.k.,.2.2.a.a.a.a.a.a.a.a.a.a.a.i.a.a.a.a.m.z.c.x.z.z.z.2.2.Z._ E < 5 Q.`.*X",
"OXQ.5 6.a E ,.~ i.b.n.z.k.,.,.2.i.i.i.i.i.i.i.i.i.i.i.i.i.i.i.i.,.2.c.x.z.b.N.b.2.4._ E 1 5 !.`.*X",
"%X_.: 9.| 3.S.i.N.N.N.b.z.2.4.4.b.b.b.b.b.b.b.b.b.b.b.b.b.b.b.b.>.,.2.z.b.N.N.N.i.1. .@.I c `.%X*X",
"oX Xz I | u.u.d.d.N.N.b.b.4.4.3.z.z.z.z.z.z.z.z.x.x.z.k.k.k.z.z.3.4.4.2.N.N.N.N.u.V.i.f 9.z _.%X*X",
"*XQ.V A T ..d.e.z.z.c.2.i.i.b.z.b.b.b.b.b.z.z.b.b.b.b.b.b.z.z.b.N.z.2.i.i.b.z.z.z.V.f.d +.+ !.@X*X",
"*X`.6 ] @.p.d.&.n.x.c.a.i.d.b.h.b.b.b.b.b.z.z.b.b.b.b.b.b.z.b.b.b.2.2.2.i.i.k.z.b.N.s.] +.6 !.@X*X",
"*X`.k A @.1.i.e.z.k.2.1.a.d.b.k.b.b.b.b.b.b.a.a.a.a.a.a.a.a.b.b.j.z.4.i.i.=.j.z.z.w.@.] f 6 !.@X*X",
"@X`.k e T ! i.N.z.k.%.$.1.i.b.z.b.b.b.b.b.b.a.a.a.a.a.b.a.a.b.b.b.z.c.a.i.i.k.x.b.*.S ] 0 3 !.@X*X",
"*X!.$ . T f i.N.n.z.2.1.i.i.b.k.b.b.b.b.b.z.a.a.b.a.a.a.a.b.b.b.N.z.4.a.i.b.z.x.M.w.] ] 7 + !.@X*X",
"*XQ.k 9 T p d.N.=.k.c.a.a.i.z.h.b.b.b.a.z.b.a.b.b.a.a.a.a.a.b.b.N.2.2.2.i.b.z.z.z.O.{ ] 0 + !.@X*X",
"].`.V A T | d.N.-.%.2.a.a.i.b.z.b.b.b.a.b.z.b.b.b.b.b.a.b.b.z.z.N.z.4.a.i.b.z.z.=.O.] ] d 6 !.@X*X",
"*X`.% +.[ p.V.v.j.x.c.i.1.i.b.z.b.b.a.a.z.b.b.b.b.b.b.b.b.z.z.z.n.b.c.a.i.i.k.x.n.w.o.+.] 6 !.{.*X",
"@X`.$ 7.Y g.N.v.n.z.c.2.i.i.z.k.b.b.b.b.b.b.b.b.b.b.b.b.b.b.b.b.N.2.,.i.i.b.%./ z.V.o.] +.6 !.@X*X",
"*X`.k { Y | w.N.n.x.c.a.i.i.b.x.b.b.b.a.b.b.b.b.z.z.b.b.b.a.b.b.n.b.4.a.i.b.z.h.M.d.S ] | + !.@X*X",
"@X`.k 8 Y ..N.v.n.z.c.a.i.i.b.z.b.b.b.a.z.z.a.b.b.b.b.a.b.a.b.z.N.z.4.2.*.i.n.x.M.*.o.+.+.3 !.{.*X",
"].`.% = Y ..d.e.j.k.2.2.i.i.b.z.b.b.b.b.b.b.a.a.b.b.b.a.b.a.b.z.b.2.2.2.*.=.z.z.z.&.o.+.f 6 !.{.*X",
"*X`.% A [ p O.C.j.k.,.2.i.i.z.z.b.b.b.a.b.b.a.a.a.a.a.a.b.a.a.b.n.z.4.a.i.i.z.%.z.i.o.] * 3 !.@X*X",
"*X`.% +.....*.B.z.k.2.2.a.i.z.z.b.z.a.a.b.b.a.a.a.a.a.b.b.b.b.b.n.z.4.a.i.b.k.) b.P.8.] 8 6 !.@X*X",
"*X`.6 S T u.V.v.n.x.c.a.i.i.b.z.b.b.a.a.b.b.z.b.b.b.b.b.b.b.b.b.N.2.2.a.i.b.z.%.2.d.K.{ ] r Q.@X*X",
"*X!.k { Y | i.N.n.x.c.a.a.i.b.z.b.b.b.b.z.z.b.z.b.z.b.b.b.z.z.b.N.2.2.a.i.b.n.z.z.w.K.d +.3 !.*X*X",
"|._.v F.G u.a.a.i.d.d.N.N.2.<.<.z.x.x.x.z.z.z.x.z.z.z.z.z.z.z.z.` 4.1.d.L.t.N.i.1.i.| 6.+ v _.%X*X",
"OX_.z J 6...X.4.b.i.t.N.b.2.<.<.b.b.b.b.b.b.b.b.b.b.b.b.b.b.b.b.<.c.,.b.N.w.N.a.a.>.! P B : !.OX*X",
"_.Q.j 3 | E _ 4.c.2.=.v.b.z.<.<.i.i.i.i.i.i.i.i.i.i.i.i.i.i.i.i.<.<.2.b.e.=.n.2.c.^ E L I j Q.`.*X",
"Q.W.k 4 f E _ <.l.2.=.v.b.z.c.l.a.i.i.i.a.a.a.i.a.a.i.i.i.i.a.a.<.2.z.b.=.=.z.,.<.Q E | 0.k W.!.*X",
"!.U.j 6.@.g Q <.l.k.j.n.v.=.k.c.a.a.a.a.a.a.a.a.a.a.a.a.a.a.a.a.2.2.b.n.b.n.z.c.' _ E | D l W.Q.*X",
"`.E.z U o.! <.c.c.b.n.N.v.=.=.b.2.2.,.2.c.c.c.2.c.c.2.2.2.2.c.c.i.b.N.N.M.M.2.c.4.<.E L t z !.+X*X",
"OX`.v k D o.a.,.z.b.n.N.N.t.e.b.k.h.%.h.k.z.k.k.k.k.k.h.h.h.k.k.i.N.N.e.B.C.-.m.m.3.o.I k z `.OX*X",
"%XOXn : G.S ..! 2.2.i.N.N.N.i.N.n.z.j.z.n.n.n.n.n.n.n.z.z.n.n.n.i.V.w.#.N.N.~ a.i. .G K x , OX%X*X",
"%XoXR.: G.{ | u.1.m.1. .m.i.1.a.e.N.N.v.N.e.#.e.e.N.N.e.N.N.N.v.a.1.1.b.b.a.a.a.p.| G $ H R.%XoX*X",
"|. XQ.- N G S | a.i.$.~ m.a.,.,.d.N.*.&.N.V.i.d.V.w.*.i.i.*.*.d.4.3.4.a.4.1.3.a.T S 5.% x Q. X%X*X",
"OX_.R.b > } 8.f | a i E X.>.X.>.p.p...p ! @.:.p.g...f | | p | p.4.3.X.X.1.X.! ! p s.9.# b Q.`.OX*X",
"+X`.!.E.> & } 7.@.o. .*.h h !  .Y ....Y T [ [ T T Y T [ [ ..[ T a ! h h O.| f @.7.K X > E.!.`.+X*X",
"+X+X`.T.E.H k $ @ 2 t Z 4 u Z 5.+.A w . w A { { { S e * = A { +.r.P 4 q I I t X 6 $ H E.E.`.+X).*X",
"@X).).+X_.E.E.E.v z z c j j j k % 6 % % k N k % k % $ % k k k % # j j z c z z M E.E.Q.Y.+X+X*X}.*X",
"{.@X@X*X%X%X X_.`.Q.`.`.`.!.!.!.`.`.`.`.Q.Q.`.`.`.`.`.`.`.`.`.`.Q.!.!.`.`.`.`.`.OX_.%X*X*X{.{.@X*X",
"{.{.~.{.*X'.%X%X%X%X*XoX*X X%X X*X@X@X*X*X*X*X@X@X*X*X*X@X*X*X*XoX X%X%X%X*X%XoX%X%X'.*X@X{.{.~.*X",
"*X*X*X*X*X*X*X*X*X*X*X*X*X*X*X*X*X*X*X*X*X*X*X*X*X*X*X*X*X*X*X*X*X*X*X*X*X*X*X*X*X*X*X*X*X*X*X*X*X"
};
