/* XPM */
static char *f5bca96657884b5bfcc246178dcf7eeafbSPMWkJEQqBK4jB[] = {
/* columns rows colors chars-per-pixel */
"112 80 11 1 ",
"  c None",
". c gray34",
"X c #754C60",
"o c #6C6C6C",
"O c #90625D",
"+ c #AA7959",
"@ c #B68962",
"# c #C49A6C",
"$ c #818181",
"% c #DCB98A",
"& c #E8CFA6",
/* pixels */
"                XXXXXXXXXXXXXXXX                XX            XX                                                ",
"                ################                ##X          X##                                                ",
"                ################                ##X          X##                                                ",
"                ################                ##X          X##                                                ",
"                %%%%%%%%%%%%%%%%                %%X          X%%                                                ",
"                ++++++++++++++++                ++X          X++                                                ",
"                ++++XXXXXXXX++++                ++X          X++                                                ",
"                OOOOX      XOOOO                OOX          XOO                                                ",
"                ++++X      X++++                ++X          X++                                                ",
"                ++++XOOOOOOX++++                ++X          X++             XX  XX   XX   XXX   XX             ",
"                ++++X######X++++                ++X          X++            X##XX##X X##X X###X X##X            ",
"                OOOOX######XOOOO                OOX          XOO           X#@@O#@@#X#@@#X#@@@#X#@@#X           ",
"                ++++X%%%%%%X++++                ++X          X++           X@@@O@@@@O@@@@O@@@@@O@@@@X           ",
"                ++++++++++++++++                ++X          X++           X@++O@++@O@+++O@@++@O@++@X           ",
"                ++++++++++++++++                ++X          X++           X+OOO+OO+O+OOOO++OO+O+OO+X           ",
"                XXXXXXXXXXXXXXXX                XXX          XXX           XO##OO##OOO###OOO##OOO##OX           ",
"            XXXXXXXXXXXXXXXXXXXXXXXX            XX            XX           X#@@O#@@#O#@@@#O#@@#O#@@#X           ",
"           X########################X           ##X          X##           X@@@O@@@@O@@@@@O@@@@O@@@@X           ",
"           X########################X           ##X XXXXXXXX X##           X@++O+++@O@@@@@O@@@@O+++@X           ",
"           X########################X           ##XX########XX##           X+OOOOOO+O@++@@O++@@OOOO+X           ",
"           X###X%%%%%%%%%%%%%%%%X###X           %%X#OOOOOOOO#X%%           XO##O###OO+OO++OOO++O###OX           ",
"           X###X++++++++++++++++X###X           ++XOOOOOOOOOOX++           X#@O@@@@#OO##OOO##OO#@@@#X           ",
"           X###X++++++++++++++++X###X           ++XOO+OOOO+OOX++           X@@O@@@@@O#@@#O#@@#O@@@@@X           ",
"           X###XOOOOOOOOOOOOOOOOX###X           OOXOO+OOOO+OOXOO           X@@O@@++@O@@@@O@@@@O@@@@@X           ",
"           X###X++++++++++++++++X###X           ++XOO+OOOO+OOX++           X@+O@+OO+O@+++O@@++O@@++@X           ",
"           X###X++++++++++++++++X###X           ++XOO+OOOO+OOX++           X+OO+O##OO+OOOO++OOO++OO+X           ",
"           X###X++++++++++++++++X###X           ++XOO+OOOO&&OX++           XO##O#@@#OO###OOO##OOO##OX           ",
"           X###XOOOOOOOOOOOOOOOOX###X           OOXOO+OOOO+OOXOO           X#@@O@@@@O#@@@#O#@@#O#@@#X           ",
"           X###X++++++++++++++++X###X           ++XOO+OOOO+OOX++           X@@@O@@@@O@@@@@O@@@@O@@@@X           ",
"           X###X++++++++++++++++X###X           ++XOO+OOOO+OOX++           X@++O@++@O@+++@O@++@O@@@@X           ",
"           X###X++++++++++++++++X###X           ++XOOOOOOOOOOX++           X+OOO+OO+O+OOO+O+OO+O@++@X           ",
"           X###XXXXXXXXXXXXXXXXXX###X           XXXXXXXXXXXXXXXX           XO##OO##OOO###OOO##OO+OO+X           ",
"           X###X&&%&&&&&&&%&&&&&X###X           XX XX         XX           X#@@O#@@#O#@@@#O#@@#OO##OX           ",
"           X###X&&%&&&&&&&%&&&&&X###X           ##X#X        X##           X@@@O@@@@O@@@@@O@@@@O#@@#X           ",
"           X###X&&%&&&&&&&%&&&&&X###X           ##X#X        X##           X@@@O@@@@@O@@@@O@@@@O@@@@X           ",
"           X###X%%%%%%%%%%%%%%%%X###X           ##XOX        X##           X@@@O@@@@@O@@@@O@@@@O@@@@X           ",
"           X###X&&&&&&%&&&&&&&%&X###X           %%XOX        X%%           X+++O+++++O++++O++++O++++X           ",
"           X###X&&&&&&%&&&&&&&%&X###X           ++XOX        X++           XOOOOOOOOOOOOOOOOOOOOOOOOX           ",
"           X###X&&&&&&%&&&&&&&%&X###X           ++XOX        X++           X@@@@@@@@@@@@@@@@@@@@@@@@X           ",
"           X###X%%%%%%%%%%%%%%%%X###X           OOXOX        XOO           X@@@@@@@@@@@@@@@@@@@@@@@@X           ",
"           X###X&&%&&&&&&&%&&&&&X###X           ++XOX        X++           X@@@@@@@@@@@@@@@@@@@@@@@@X           ",
"           X###X&&%&&&&&&&%&&&&&X###X           ++XOX        X++           X########################X           ",
"           X###X&&%&&&&&&&%&&&&&X###X           ++XOX        X++           XOOOOOOOOOOOOOOOOOOOOOOOOX           ",
"           X###X%%%%%%%%%%%%%%%%X###X           OOXOX        XOO           X++++O++++O++++O+++++O+++X           ",
"           X###X&&&&&&%&&&&&&&%&X###X           ++XOX        X++           X@@@@O@@@@O@@@@O@@@@@O@@@X           ",
"           X###X&&&&&&%&&&&&&&%&X###X           ++XOX        X++           X@@@@O@@@@O@@@@O@@@@@O@@@X           ",
"           X###X&&&&&&%&&&&&&&%&X###X           ++XXX        X++           X#@@#O@@@@O@@@@@O@@@@O@@@X           ",
"           X###X%%%%%%%%%%%%%%%%X###X           XXX          XXX           XO##OO#@@#O#@@@#O#@@#O@@#X           ",
"           X###XXXXXXXXXXXXXXXXXX###X           XX     XX     XX           X+OO+OO##OOO###OOO##OO##OX           ",
"           X########################X           ##X  XX##X   X##           X@++@O+OO+O+OOO+O+OO+OOO+X           ",
"           X########################X           ##XXX##OOX   X##           X@@@@O@++@O@+++@O@++@O++@X           ",
"           X########################X           ##X##OOOOX   X##           X@@@@O@@@@O@@@@@O@@@@O@@@X           ",
"           XO%%%%%%%%%%%%%%%%%%%%%%OX           %%XOOOO+OX   X%%           X#@@#O#@@#O#@@@#O@@@@O@@#X           ",
"           X++++++++++++++++++++++++X           ++XOOOO+OX   X++           XO##OOO##OOO###OO#@@#O##OX           ",
"           X++++++++++++++++++++++++X           ++XO+OO+OX   X++           X+OO++OOO++OOOO+OO##O+OO+X           ",
"           XOOOOOOOOOOOOOOOOOOOOOOOOX           OOXO+OO+&X   XOO           X@++@@O++@@O+++@O+OO+@O+@X           ",
"           X++++++++++++++++++++++++X           ++XO+OO&OX   X++           X@@@@@O@@@@O@@@@O@++@@O@@X           ",
"           X++++++++++++++++++++++++X           ++XO+OO+OX   X++           X@@@@@O#@@#O#@@#O@@@@@O@@X           ",
"           X++++++++++++++++++++++++X           ++XO+OO+OX   X++           X#@@@#OO##OOO##OO#@@@@O@#X           ",
"           XOOOOOOOOOOOOOOOOOOOOOOOOX           OOXO+OOOOX   XOO           XO###O++OOO++OO+OO###O##OX           ",
"           X++++++++++++++++++++++++X           ++XO+OOOOX   X++           X+OOOO@@++O@@++@O+OOOOOO+X           ",
"           X++++++++++++++++++++++++X           ++XOOOOXX    X++           X@+++O@@@@O@@@@@O@+++O++@X           ",
"           X++++++++++++++++++++++++X           ++XOOXX      X++           X@@@@O@@@@O@@@@@O@@@@O@@@X           ",
"           XXXXXXXXXXXXXXXXXXXXXXXXXX           XXXXX        XXX           X#@@#O#@@#O#@@@#O#@@#O@@#X           ",
"    ........                                                               XO##OOO##OOO###OOO##OO##OX           ",
"   .$$$$$$$$.                                                              X+OO+O+OO++OOOO+O+OO+OOO+X           ",
"   .$......$.                                                              X@++@O@++@@O+++@O@++@O++@X           ",
"   .$$$$$$$$.                                                              X@@@@O@@@@@O@@@@O@@@@O@@@X           ",
"    ........                                                               X#@@#X#@@@#X#@@#X#@@#O@@#X           ",
"    .oooooo.                                                                X##X X###X X##X X##XX##X            ",
"    .$$$$$$.                                                                 XX   XXX   XX   XX  XX             ",
"    .$$$$$$.                                                                                                    ",
"     ......                                                                                                     ",
"                                                                                                                ",
"                                                                                                                ",
"                                                                                                                ",
"                                                                                                                ",
"                                                                                                                ",
"                                                                                                                ",
"                                                                                                                "
};
